<svg width="273" height="82" viewBox="0 0 273 82" fill="none" xmlns="http://www.w3.org/2000/svg">
<path d="M111.04 51V30H118.21C120.67 30 122.69 30.44 124.27 31.32C125.87 32.18 127.05 33.4 127.81 34.98C128.59 36.54 128.98 38.38 128.98 40.5C128.98 42.62 128.59 44.47 127.81 46.05C127.05 47.61 125.87 48.83 124.27 49.71C122.69 50.57 120.67 51 118.21 51H111.04ZM114.88 47.7H118.03C119.79 47.7 121.18 47.42 122.2 46.86C123.22 46.28 123.95 45.46 124.39 44.4C124.83 43.32 125.05 42.02 125.05 40.5C125.05 39 124.83 37.71 124.39 36.63C123.95 35.55 123.22 34.72 122.2 34.14C121.18 33.56 119.79 33.27 118.03 33.27H114.88V47.7ZM139.418 51.36C137.978 51.36 136.678 51.03 135.518 50.37C134.378 49.71 133.468 48.8 132.788 47.64C132.128 46.46 131.798 45.1 131.798 43.56C131.798 42.02 132.138 40.67 132.818 39.51C133.498 38.33 134.408 37.41 135.548 36.75C136.708 36.09 138.008 35.76 139.448 35.76C140.868 35.76 142.148 36.09 143.288 36.75C144.448 37.41 145.358 38.33 146.018 39.51C146.698 40.67 147.038 42.02 147.038 43.56C147.038 45.1 146.698 46.46 146.018 47.64C145.358 48.8 144.448 49.71 143.288 50.37C142.128 51.03 140.838 51.36 139.418 51.36ZM139.418 48.03C140.418 48.03 141.288 47.66 142.028 46.92C142.768 46.16 143.138 45.04 143.138 43.56C143.138 42.08 142.768 40.97 142.028 40.23C141.288 39.47 140.428 39.09 139.448 39.09C138.428 39.09 137.548 39.47 136.808 40.23C136.088 40.97 135.728 42.08 135.728 43.56C135.728 45.04 136.088 46.16 136.808 46.92C137.548 47.66 138.418 48.03 139.418 48.03ZM156.051 51.36C154.191 51.36 152.751 50.78 151.731 49.62C150.731 48.46 150.231 46.76 150.231 44.52V36.12H154.041V44.16C154.041 45.44 154.301 46.42 154.821 47.1C155.341 47.78 156.161 48.12 157.281 48.12C158.341 48.12 159.211 47.74 159.891 46.98C160.591 46.22 160.941 45.16 160.941 43.8V36.12H164.781V51H161.391L161.091 48.48C160.631 49.36 159.961 50.06 159.081 50.58C158.221 51.1 157.211 51.36 156.051 51.36ZM177.543 51.36C176.423 51.36 175.443 51.15 174.603 50.73C173.763 50.31 173.083 49.72 172.563 48.96L172.143 51H168.723V29.4H172.563V38.25C173.043 37.59 173.673 37.01 174.453 36.51C175.253 36.01 176.283 35.76 177.543 35.76C178.943 35.76 180.193 36.1 181.293 36.78C182.393 37.46 183.263 38.39 183.903 39.57C184.543 40.75 184.863 42.09 184.863 43.59C184.863 45.09 184.543 46.43 183.903 47.61C183.263 48.77 182.393 49.69 181.293 50.37C180.193 51.03 178.943 51.36 177.543 51.36ZM176.733 48C177.953 48 178.963 47.59 179.763 46.77C180.563 45.95 180.963 44.89 180.963 43.59C180.963 42.29 180.563 41.22 179.763 40.38C178.963 39.54 177.953 39.12 176.733 39.12C175.493 39.12 174.473 39.54 173.673 40.38C172.893 41.2 172.503 42.26 172.503 43.56C172.503 44.86 172.893 45.93 173.673 46.77C174.473 47.59 175.493 48 176.733 48ZM188.294 51V29.4H192.134V51H188.294ZM203.287 51.36C201.787 51.36 200.457 51.04 199.297 50.4C198.137 49.76 197.227 48.86 196.567 47.7C195.907 46.54 195.577 45.2 195.577 43.68C195.577 42.14 195.897 40.77 196.537 39.57C197.197 38.37 198.097 37.44 199.237 36.78C200.397 36.1 201.757 35.76 203.317 35.76C204.777 35.76 206.067 36.08 207.187 36.72C208.307 37.36 209.177 38.24 209.797 39.36C210.437 40.46 210.757 41.69 210.757 43.05C210.757 43.27 210.747 43.5 210.727 43.74C210.727 43.98 210.717 44.23 210.697 44.49H199.387C199.467 45.65 199.867 46.56 200.587 47.22C201.327 47.88 202.217 48.21 203.257 48.21C204.037 48.21 204.687 48.04 205.207 47.7C205.747 47.34 206.147 46.88 206.407 46.32H210.307C210.027 47.26 209.557 48.12 208.897 48.9C208.257 49.66 207.457 50.26 206.497 50.7C205.557 51.14 204.487 51.36 203.287 51.36ZM203.317 38.88C202.377 38.88 201.547 39.15 200.827 39.69C200.107 40.21 199.647 41.01 199.447 42.09H206.857C206.797 41.11 206.437 40.33 205.777 39.75C205.117 39.17 204.297 38.88 203.317 38.88ZM223.257 51.36C221.277 51.36 219.547 50.91 218.067 50.01C216.587 49.11 215.437 47.86 214.617 46.26C213.797 44.64 213.387 42.76 213.387 40.62C213.387 38.46 213.807 36.56 214.647 34.92C215.507 33.26 216.717 31.97 218.277 31.05C219.857 30.11 221.727 29.64 223.887 29.64C226.347 29.64 228.387 30.23 230.007 31.41C231.627 32.59 232.677 34.22 233.157 36.3H228.867C228.547 35.32 227.967 34.56 227.127 34.02C226.287 33.46 225.207 33.18 223.887 33.18C221.787 33.18 220.167 33.85 219.027 35.19C217.887 36.51 217.317 38.33 217.317 40.65C217.317 42.97 217.877 44.77 218.997 46.05C220.137 47.31 221.677 47.94 223.617 47.94C225.517 47.94 226.947 47.43 227.907 46.41C228.887 45.37 229.477 44.01 229.677 42.33H224.367V39.45H233.547V51H230.007L229.707 48.24C229.027 49.24 228.177 50.01 227.157 50.55C226.137 51.09 224.837 51.36 223.257 51.36ZM242.32 51.36C241.04 51.36 239.99 51.16 239.17 50.76C238.35 50.34 237.74 49.79 237.34 49.11C236.94 48.43 236.74 47.68 236.74 46.86C236.74 45.48 237.28 44.36 238.36 43.5C239.44 42.64 241.06 42.21 243.22 42.21H247V41.85C247 40.83 246.71 40.08 246.13 39.6C245.55 39.12 244.83 38.88 243.97 38.88C243.19 38.88 242.51 39.07 241.93 39.45C241.35 39.81 240.99 40.35 240.85 41.07H237.1C237.2 39.99 237.56 39.05 238.18 38.25C238.82 37.45 239.64 36.84 240.64 36.42C241.64 35.98 242.76 35.76 244 35.76C246.12 35.76 247.79 36.29 249.01 37.35C250.23 38.41 250.84 39.91 250.84 41.85V51H247.57L247.21 48.6C246.77 49.4 246.15 50.06 245.35 50.58C244.57 51.1 243.56 51.36 242.32 51.36ZM243.19 48.36C244.29 48.36 245.14 48 245.74 47.28C246.36 46.56 246.75 45.67 246.91 44.61H243.64C242.62 44.61 241.89 44.8 241.45 45.18C241.01 45.54 240.79 45.99 240.79 46.53C240.79 47.11 241.01 47.56 241.45 47.88C241.89 48.2 242.47 48.36 243.19 48.36ZM254.505 57.6V36.12H257.925L258.345 38.25C258.825 37.59 259.455 37.01 260.235 36.51C261.035 36.01 262.065 35.76 263.325 35.76C264.725 35.76 265.975 36.1 267.075 36.78C268.175 37.46 269.045 38.39 269.685 39.57C270.325 40.75 270.645 42.09 270.645 43.59C270.645 45.09 270.325 46.43 269.685 47.61C269.045 48.77 268.175 49.69 267.075 50.37C265.975 51.03 264.725 51.36 263.325 51.36C262.205 51.36 261.225 51.15 260.385 50.73C259.545 50.31 258.865 49.72 258.345 48.96V57.6H254.505ZM262.515 48C263.735 48 264.745 47.59 265.545 46.77C266.345 45.95 266.745 44.89 266.745 43.59C266.745 42.29 266.345 41.22 265.545 40.38C264.745 39.54 263.735 39.12 262.515 39.12C261.275 39.12 260.255 39.54 259.455 40.38C258.675 41.2 258.285 42.26 258.285 43.56C258.285 44.86 258.675 45.93 259.455 46.77C260.255 47.59 261.275 48 262.515 48Z" fill="white"/>
<circle cx="41" cy="41" r="41" fill="#007FFF"/>
<path d="M61.49 40.6092C61.49 54.1839 46.7615 65.1884 33.5111 65.1884C20.2607 65.1884 20.969 54.1839 20.969 40.6092C20.969 27.0346 20.2607 16.0301 33.5111 16.0301C46.7615 16.0301 61.49 27.0346 61.49 40.6092Z" fill="white"/>
<path d="M46.5685 42.138C46.5685 48.0448 41.7292 55.2247 35.7794 55.2247C29.8296 55.2247 31.9664 48.0448 31.9664 42.138C31.9664 36.2312 29.8295 25.3312 35.7793 25.3312C41.7291 25.3312 46.5685 36.2312 46.5685 42.138Z" fill="#007FFF"/>
</svg>
