<svg width="126" height="87" viewBox="0 0 126 87" fill="none" xmlns="http://www.w3.org/2000/svg">
<g clip-path="url(#clip0_3195_811)">
<path opacity="0.1" d="M31.9518 34.8596H18.6487C18.1776 34.8596 17.7957 35.2404 17.7957 35.7102V38.5331C17.7957 39.0028 18.1776 39.3836 18.6487 39.3836H31.9518C32.4229 39.3836 32.8048 39.0028 32.8048 38.5331V35.7102C32.8048 35.2404 32.4229 34.8596 31.9518 34.8596Z" fill="#007FFF"/>
<path opacity="0.1" d="M47.6588 39.3848H34.3557C33.8846 39.3848 33.5027 39.7656 33.5027 40.2353V43.0582C33.5027 43.528 33.8846 43.9088 34.3557 43.9088H47.6588C48.1299 43.9088 48.5119 43.528 48.5119 43.0582V40.2353C48.5119 39.7656 48.1299 39.3848 47.6588 39.3848Z" fill="#007FFF"/>
<path opacity="0.1" d="M63.3673 43.9086H50.0642C49.5931 43.9086 49.2112 44.2894 49.2112 44.7591V47.582C49.2112 48.0518 49.5931 48.4326 50.0642 48.4326H63.3673C63.8384 48.4326 64.2204 48.0518 64.2204 47.582V44.7591C64.2204 44.2894 63.8384 43.9086 63.3673 43.9086Z" fill="#007FFF"/>
<path opacity="0.1" d="M31.9518 28.0735H18.6487C18.1776 28.0735 17.7957 28.4543 17.7957 28.924V31.7469C17.7957 32.2167 18.1776 32.5975 18.6487 32.5975H31.9518C32.4229 32.5975 32.8048 32.2167 32.8048 31.7469V28.924C32.8048 28.4543 32.4229 28.0735 31.9518 28.0735Z" fill="#007FFF"/>
<path opacity="0.1" d="M47.6588 32.5975H34.3557C33.8846 32.5975 33.5027 32.9783 33.5027 33.4481V36.271C33.5027 36.7407 33.8846 37.1215 34.3557 37.1215H47.6588C48.1299 37.1215 48.5119 36.7407 48.5119 36.271V33.4481C48.5119 32.9783 48.1299 32.5975 47.6588 32.5975Z" fill="#007FFF"/>
<path opacity="0.1" d="M63.3673 37.1227H50.0642C49.5931 37.1227 49.2112 37.5035 49.2112 37.9732V40.7961C49.2112 41.2659 49.5931 41.6467 50.0642 41.6467H63.3673C63.8384 41.6467 64.2204 41.2659 64.2204 40.7961V37.9732C64.2204 37.5035 63.8384 37.1227 63.3673 37.1227Z" fill="#007FFF"/>
<path opacity="0.1" d="M80.8195 34.8596H67.5164C67.0452 34.8596 66.6633 35.2404 66.6633 35.7102V38.5331C66.6633 39.0028 67.0452 39.3836 67.5164 39.3836H80.8195C81.2906 39.3836 81.6725 39.0028 81.6725 38.5331V35.7102C81.6725 35.2404 81.2906 34.8596 80.8195 34.8596Z" fill="#007FFF"/>
<path opacity="0.1" d="M96.5267 39.3848H83.2236C82.7525 39.3848 82.3706 39.7656 82.3706 40.2353V43.0582C82.3706 43.528 82.7525 43.9088 83.2236 43.9088H96.5267C96.9979 43.9088 97.3798 43.528 97.3798 43.0582V40.2353C97.3798 39.7656 96.9979 39.3848 96.5267 39.3848Z" fill="#007FFF"/>
<path opacity="0.1" d="M112.235 43.9086H98.9321C98.461 43.9086 98.0791 44.2894 98.0791 44.7591V47.582C98.0791 48.0518 98.461 48.4326 98.9321 48.4326H112.235C112.706 48.4326 113.088 48.0518 113.088 47.582V44.7591C113.088 44.2894 112.706 43.9086 112.235 43.9086Z" fill="#007FFF"/>
<path opacity="0.1" d="M80.8195 28.0735H67.5164C67.0452 28.0735 66.6633 28.4543 66.6633 28.924V31.7469C66.6633 32.2167 67.0452 32.5975 67.5164 32.5975H80.8195C81.2906 32.5975 81.6725 32.2167 81.6725 31.7469V28.924C81.6725 28.4543 81.2906 28.0735 80.8195 28.0735Z" fill="#007FFF"/>
<path opacity="0.1" d="M96.5267 32.5975H83.2236C82.7525 32.5975 82.3706 32.9783 82.3706 33.4481V36.271C82.3706 36.7407 82.7525 37.1215 83.2236 37.1215H96.5267C96.9979 37.1215 97.3798 36.7407 97.3798 36.271V33.4481C97.3798 32.9783 96.9979 32.5975 96.5267 32.5975Z" fill="#007FFF"/>
<path opacity="0.1" d="M112.235 37.1227H98.9321C98.461 37.1227 98.0791 37.5035 98.0791 37.9732V40.7961C98.0791 41.2659 98.461 41.6467 98.9321 41.6467H112.235C112.706 41.6467 113.088 41.2659 113.088 40.7961V37.9732C113.088 37.5035 112.706 37.1227 112.235 37.1227Z" fill="#007FFF"/>
<path opacity="0.1" d="M31.9518 19.0244H18.6487C18.1776 19.0244 17.7957 19.4052 17.7957 19.875V22.6979C17.7957 23.1676 18.1776 23.5484 18.6487 23.5484H31.9518C32.4229 23.5484 32.8048 23.1676 32.8048 22.6979V19.875C32.8048 19.4052 32.4229 19.0244 31.9518 19.0244Z" fill="#007FFF"/>
<path opacity="0.1" d="M47.6588 23.5483H34.3557C33.8846 23.5483 33.5027 23.9291 33.5027 24.3989V27.2218C33.5027 27.6915 33.8846 28.0723 34.3557 28.0723H47.6588C48.1299 28.0723 48.5119 27.6915 48.5119 27.2218V24.3989C48.5119 23.9291 48.1299 23.5483 47.6588 23.5483Z" fill="#007FFF"/>
<path opacity="0.1" d="M63.3673 28.0735H50.0642C49.5931 28.0735 49.2112 28.4543 49.2112 28.924V31.7469C49.2112 32.2167 49.5931 32.5975 50.0642 32.5975H63.3673C63.8384 32.5975 64.2204 32.2167 64.2204 31.7469V28.924C64.2204 28.4543 63.8384 28.0735 63.3673 28.0735Z" fill="#007FFF"/>
<path opacity="0.1" d="M31.9518 12.2372H18.6487C18.1776 12.2372 17.7957 12.618 17.7957 13.0877V15.9106C17.7957 16.3804 18.1776 16.7612 18.6487 16.7612H31.9518C32.4229 16.7612 32.8048 16.3804 32.8048 15.9106V13.0877C32.8048 12.618 32.4229 12.2372 31.9518 12.2372Z" fill="#007FFF"/>
<path opacity="0.1" d="M47.6588 16.7623H34.3557C33.8846 16.7623 33.5027 17.1431 33.5027 17.6129V20.4358C33.5027 20.9055 33.8846 21.2863 34.3557 21.2863H47.6588C48.1299 21.2863 48.5119 20.9055 48.5119 20.4358V17.6129C48.5119 17.1431 48.1299 16.7623 47.6588 16.7623Z" fill="#007FFF"/>
<path opacity="0.1" d="M63.3673 21.2864H50.0642C49.5931 21.2864 49.2112 21.6672 49.2112 22.1369V24.9598C49.2112 25.4296 49.5931 25.8104 50.0642 25.8104H63.3673C63.8384 25.8104 64.2204 25.4296 64.2204 24.9598V22.1369C64.2204 21.6672 63.8384 21.2864 63.3673 21.2864Z" fill="#007FFF"/>
<path opacity="0.1" d="M80.8195 19.0244H67.5164C67.0452 19.0244 66.6633 19.4052 66.6633 19.875V22.6979C66.6633 23.1676 67.0452 23.5484 67.5164 23.5484H80.8195C81.2906 23.5484 81.6725 23.1676 81.6725 22.6979V19.875C81.6725 19.4052 81.2906 19.0244 80.8195 19.0244Z" fill="#007FFF"/>
<path opacity="0.1" d="M96.5267 23.5483H83.2236C82.7525 23.5483 82.3706 23.9291 82.3706 24.3989V27.2218C82.3706 27.6915 82.7525 28.0723 83.2236 28.0723H96.5267C96.9979 28.0723 97.3798 27.6915 97.3798 27.2218V24.3989C97.3798 23.9291 96.9979 23.5483 96.5267 23.5483Z" fill="#007FFF"/>
<path opacity="0.1" d="M112.235 28.0735H98.9321C98.461 28.0735 98.0791 28.4543 98.0791 28.924V31.7469C98.0791 32.2167 98.461 32.5975 98.9321 32.5975H112.235C112.706 32.5975 113.088 32.2167 113.088 31.7469V28.924C113.088 28.4543 112.706 28.0735 112.235 28.0735Z" fill="#007FFF"/>
<path opacity="0.1" d="M80.8195 12.2372H67.5164C67.0452 12.2372 66.6633 12.618 66.6633 13.0877V15.9106C66.6633 16.3804 67.0452 16.7612 67.5164 16.7612H80.8195C81.2906 16.7612 81.6725 16.3804 81.6725 15.9106V13.0877C81.6725 12.618 81.2906 12.2372 80.8195 12.2372Z" fill="#007FFF"/>
<path opacity="0.1" d="M96.5267 16.7623H83.2236C82.7525 16.7623 82.3706 17.1431 82.3706 17.6129V20.4358C82.3706 20.9055 82.7525 21.2863 83.2236 21.2863H96.5267C96.9979 21.2863 97.3798 20.9055 97.3798 20.4358V17.6129C97.3798 17.1431 96.9979 16.7623 96.5267 16.7623Z" fill="#007FFF"/>
<path opacity="0.1" d="M112.235 21.2864H98.9321C98.461 21.2864 98.0791 21.6672 98.0791 22.1369V24.9598C98.0791 25.4296 98.461 25.8104 98.9321 25.8104H112.235C112.706 25.8104 113.088 25.4296 113.088 24.9598V22.1369C113.088 21.6672 112.706 21.2864 112.235 21.2864Z" fill="#007FFF"/>
<path opacity="0.1" d="M62.8013 87C97.4855 87 125.603 81.9005 125.603 75.6099C125.603 69.3193 97.4855 64.2197 62.8013 64.2197C28.1171 64.2197 0 69.3193 0 75.6099C0 81.9005 28.1171 87 62.8013 87Z" fill="#007FFF"/>
<path d="M27.5545 36.746L22.2732 69.0275L46.1538 66.5091L45.1205 63.7617L26.4638 65.3071L30.8266 36.6887L27.5545 36.746Z" fill="#3F3D56"/>
<path d="M21.3547 0.114474L53.5017 0L62.8013 70.1724L30.5396 74.5224L21.3547 0.114474Z" fill="#3F3D56"/>
<path d="M24.8562 2.80457H50.8034L59.8734 68.0546L33.1226 71.7177L24.8562 2.80457Z" fill="white"/>
<path d="M49.3271 65.1194C49.4902 65.4308 49.6118 65.7674 49.8242 66.0478C50.4442 66.8743 51.621 67.0037 52.5039 67.5429C52.5481 67.5652 52.5845 67.6003 52.6084 67.6436C52.6486 67.7386 52.559 67.8382 52.4729 67.8977C51.8036 68.3659 50.9253 68.3762 50.1067 68.3705C49.8316 68.3803 49.5564 68.3541 49.2881 68.2927C48.8552 68.1782 48.4844 67.8771 48.0573 67.7546C47.8359 67.6995 47.6092 67.6676 47.3811 67.6596L46.4844 67.5989C46.2457 67.5955 46.0093 67.5518 45.7852 67.4696C45.6736 67.427 45.5746 67.3569 45.4975 67.2658C45.4204 67.1747 45.3677 67.0656 45.3443 66.9487C45.3191 66.7587 45.4006 66.5744 45.4488 66.389C45.5636 65.9494 45.528 65.4182 45.8713 65.1183C46.0128 65.0103 46.1749 64.9324 46.3478 64.8893C46.9718 64.6797 47.6088 64.5107 48.2548 64.3834C48.7864 64.2792 49.0918 64.6684 49.3271 65.1194Z" fill="#3F3D56"/>
<path d="M39.1846 67.5956C39.2076 67.8394 39.2144 68.1187 39.0376 68.2893C38.9275 68.3804 38.7945 68.4398 38.653 68.461C37.8046 68.6579 36.8585 68.6716 36.1203 68.2114C36.0435 68.1677 35.9757 68.1098 35.9205 68.0409C35.859 67.9469 35.8241 67.8382 35.8195 67.7261C35.7931 67.4021 35.893 67.0827 35.9837 66.7702C36.1983 66.0287 36.3613 65.2733 36.4716 64.5094C36.4808 64.4464 38.6381 64.8528 38.7816 65.0657C38.9619 65.329 38.963 65.9609 39.0112 66.2745C39.0839 66.7126 39.1417 67.1529 39.1846 67.5956Z" fill="#3F3D56"/>
<path d="M47.2144 37.8073L47.7884 43.1291C47.9032 44.2166 48.0238 45.3099 47.9446 46.4008C47.8527 47.66 47.4991 48.9192 47.6483 50.167C47.7069 50.6524 47.8401 51.1286 47.8596 51.6174C47.8632 51.9424 47.8468 52.2674 47.8102 52.5904C47.5508 55.8197 48.3717 59.0238 48.8309 62.2302C48.9047 62.6257 48.921 63.0298 48.8791 63.4299C48.8194 63.8363 48.7 64.3697 49.0628 64.5621L45.6552 65.7938C45.2201 65.25 45.5083 64.4041 45.4256 63.7138C45.3498 63.0922 45.0077 62.5382 44.8252 61.9395C44.6598 61.4014 44.6254 60.8348 44.5714 60.2762C44.2741 57.2346 43.3613 54.272 43.1478 51.2236C43.1409 50.9292 43.1024 50.6364 43.033 50.3501C42.9182 49.9712 42.6885 49.6404 42.5209 49.2844C42.2637 48.7498 42.1374 48.1637 42.0135 47.5845L41.2844 44.1789C40.5473 45.2732 40.5772 46.6973 40.4314 48.0092C40.227 49.8407 39.7701 51.6414 39.3981 53.4501C39.3116 53.8393 39.2469 54.2329 39.204 54.6292C39.1076 55.6903 39.2993 56.7618 39.1972 57.8218C39.0823 59.0501 38.5645 60.2487 38.6897 61.477C38.7586 62.157 39.0203 62.8003 39.1972 63.4597C39.374 64.119 39.4612 64.8425 39.1914 65.471C38.2484 65.1258 37.2354 65.0142 36.2396 65.1459C35.1455 64.0298 34.9515 62.4729 34.8768 60.9103C34.8022 59.3478 34.9825 57.7829 34.7873 56.2352C34.7299 55.7773 34.6403 55.3309 34.6254 54.8741C34.5772 53.41 35.2833 52.0398 35.6346 50.6169C35.9507 49.3359 35.9809 48.0014 35.723 46.7076C35.5508 45.8525 35.2546 45.0225 35.1489 44.156C35.0054 42.9414 35.2488 41.7177 35.4934 40.518C35.6575 39.7087 35.8206 38.8993 36.0066 38.0946C36.2063 37.2303 36.444 36.3477 36.9779 35.6403C37.8321 34.5081 39.3487 34.0056 40.7666 34.1155C42.1845 34.2254 43.5083 34.8687 44.6793 35.67C45.6023 36.2851 46.4527 37.002 47.2144 37.8073Z" fill="#192534"/>
<path d="M43.405 17.4287C43.3406 17.5318 43.2959 17.6459 43.273 17.7653C43.2443 17.9999 43.3878 18.2151 43.5026 18.42C43.6497 18.6833 43.7627 18.9641 43.839 19.2557C43.8936 19.4362 43.9104 19.626 43.8884 19.8132C43.8603 19.9538 43.81 20.0891 43.7391 20.2138C43.5175 20.6397 43.1892 21.0335 42.7425 21.2109C42.3967 21.3379 42.0195 21.3531 41.6645 21.2544C41.3118 21.1549 40.9785 20.997 40.6783 20.7874C40.4252 20.6275 40.1977 20.4307 40.0032 20.2035C39.8175 19.9552 39.6611 19.6863 39.537 19.4022C39.2982 18.9043 39.056 18.372 39.0996 17.8259C39.1019 17.7764 39.1112 17.7275 39.1272 17.6805C39.1644 17.5957 39.2165 17.5182 39.281 17.4516C39.7708 16.8728 40.022 16.1302 39.9837 15.3739L41.6564 15.7528C42.025 15.8364 42.3935 15.9199 42.7575 16.0241C43.056 16.11 43.5152 16.229 43.7093 16.4946C43.9033 16.7602 43.537 17.186 43.405 17.4287Z" fill="#C1694F"/>
<path d="M42.5097 17.1447C44.1887 17.1447 45.5498 15.7875 45.5498 14.1134C45.5498 12.4393 44.1887 11.0822 42.5097 11.0822C40.8306 11.0822 39.4695 12.4393 39.4695 14.1134C39.4695 15.7875 40.8306 17.1447 42.5097 17.1447Z" fill="#C1694F"/>
<path d="M42.0205 20.2287C42.1491 19.9482 42.4269 19.7708 42.6807 19.5945C42.9344 19.4182 43.1916 19.1927 43.2409 18.8871C43.244 18.8179 43.2612 18.7501 43.2915 18.6879C43.389 18.5413 43.621 18.6146 43.7599 18.7222C44.0974 18.9844 44.327 19.3564 44.5509 19.7193C44.8406 20.1606 45.0885 20.6277 45.2915 21.1147C45.6141 21.963 45.6531 22.8891 45.6887 23.7945C45.7208 24.6187 45.7518 25.4556 45.5509 26.2546C45.4246 26.7606 45.2065 27.2516 45.1939 27.7725C45.156 29.6647 44.497 31.4734 44.451 33.3657C44.4476 33.9128 44.4752 34.4598 44.5337 35.0038L44.6416 36.2321C42.9723 36.1367 41.3075 35.9906 39.6474 35.7937C39.5992 35.2282 39.4373 34.6798 39.2892 34.1327C38.6827 31.8956 38.294 29.6055 38.1284 27.294C38.04 26.0668 37.9493 24.8443 37.8127 23.6217C37.6899 22.5101 37.4488 21.3917 37.5934 20.2825C37.6691 19.7783 37.8282 19.2901 38.0641 18.8378C38.1387 18.6576 38.267 18.5046 38.4315 18.3994C38.5138 18.3598 38.6011 18.3317 38.691 18.3158C38.9513 18.2633 39.2155 18.2322 39.4809 18.2231C39.5458 18.2177 39.6111 18.2239 39.6738 18.2414C39.7856 18.297 39.8775 18.3858 39.9367 18.4956C40.4482 19.2624 41.1722 19.8645 42.0205 20.2287Z" fill="#F2F2F2"/>
<path d="M40.6106 19.9859C40.8241 20.2904 41.2765 20.3626 41.474 20.6728C41.5405 20.8024 41.591 20.9397 41.6244 21.0815C41.7449 21.4649 41.9883 21.7981 42.1364 22.1724C42.35 22.7104 42.3557 23.3057 42.358 23.8838C42.379 24.3443 42.3435 24.8056 42.2524 25.2575C42.1835 25.5402 42.071 25.8092 41.9883 26.0885C41.8479 26.5635 41.7958 27.0601 41.8345 27.5538C41.8345 27.6605 41.863 27.7652 41.9171 27.8572C41.995 27.9491 42.0967 28.018 42.2111 28.0563C42.5474 28.204 42.8999 28.3551 43.2673 28.3208C43.3427 28.3184 43.4157 28.2941 43.4774 28.2509C43.52 28.2123 43.555 28.1661 43.5807 28.1147L43.8104 27.7278C44.0182 27.3741 44.2352 26.978 44.1548 26.5739C44.0964 26.3653 44.0087 26.1661 43.8942 25.9821C43.7474 25.6835 43.6224 25.3747 43.5199 25.0583C43.1536 24.0086 42.7828 22.9439 42.7001 21.8358C42.6515 21.4141 42.6986 20.9869 42.8379 20.5858C42.9458 20.3389 43.0813 20.105 43.2421 19.8886C43.2057 19.84 43.1554 19.8036 43.0977 19.7841C43.0401 19.7647 42.9779 19.7632 42.9194 19.7799C42.8039 19.8155 42.6921 19.8619 42.5853 19.9184C42.2478 20.0604 41.8735 20.0088 41.5325 19.9115C41.3993 19.8726 41.1881 19.7398 41.0503 19.749C41.0032 19.7547 40.6186 19.9997 40.6106 19.9859Z" fill="#007FFF"/>
<path d="M43.2985 19.9734C43.2296 19.9184 43.1228 19.868 43.0619 19.9321C43.0415 19.9599 43.0267 19.9914 43.0183 20.0249C42.9586 20.1851 42.783 20.2641 42.6234 20.3259C42.4638 20.3878 42.2916 20.4221 42.1951 20.3042C42.1647 20.2583 42.1497 20.2039 42.1524 20.1489C42.1551 20.094 42.1753 20.0413 42.2101 19.9985C42.2807 19.9137 42.3658 19.842 42.4615 19.7868C42.9896 19.4151 43.3493 18.8507 43.4626 18.2162C43.6107 18.3335 43.7088 18.5025 43.737 18.689C43.7749 18.871 43.7795 19.0587 43.8174 19.2407C43.8737 19.5017 43.9988 19.7456 44.0275 20.01C44.0424 20.1508 44.0275 20.2927 44.0275 20.4335C44.0327 20.5712 44.0488 20.7082 44.0757 20.8434C43.8071 20.5595 43.6176 20.2263 43.2985 19.9734Z" fill="#F2F2F2"/>
<path d="M40.9747 19.1961C40.8599 19.0873 40.7451 18.9843 40.6303 18.8733C40.1265 18.383 39.746 17.7809 39.52 17.1161C39.3731 17.2306 39.2112 17.3817 39.2078 17.574C39.2209 17.7101 39.2735 17.8394 39.3593 17.946C39.7935 18.6277 40.0801 19.3923 40.2009 20.1909C40.2629 20.0942 40.3488 20.0152 40.4504 19.9612C40.5519 19.9073 40.6656 19.8803 40.7807 19.8829C40.9621 19.8829 41.7761 20.3637 41.8346 20.2424C41.9207 20.0523 41.1125 19.3254 40.9747 19.1961Z" fill="#F2F2F2"/>
<path d="M43.5383 18.2849C44.6183 19.3569 45.9404 20.1549 47.3936 20.6122C47.5381 20.6436 47.6721 20.7114 47.7828 20.8091C47.8656 20.9121 47.9212 21.0341 47.9447 21.1639C48.2249 22.256 48.319 23.3859 48.412 24.5089C48.4364 24.6946 48.4325 24.8829 48.4005 25.0675C48.3328 25.3674 48.1192 25.6101 47.9091 25.8356C47.2501 26.5396 46.4981 27.2757 46.3867 28.2327C46.3782 28.4172 46.3564 28.6008 46.3213 28.7822C46.2639 28.9951 46.1365 29.1828 46.0584 29.39C45.6749 30.41 46.5417 31.6451 46.0136 32.5953C46.2995 33.1429 46.4956 33.7327 46.5946 34.3421C46.6123 34.5732 46.6653 34.8002 46.7518 35.0152C46.9091 35.3426 47.2329 35.551 47.4878 35.8166C48.265 36.611 48.3603 37.8267 48.4063 38.936C48.435 39.561 48.4258 40.2787 47.947 40.6886C47.6703 40.9278 47.2926 41.0057 46.9309 41.0652C46.4499 41.1453 45.9264 41.2025 45.5004 40.9656C45.195 40.7962 44.9872 40.4997 44.7886 40.2135C44.412 39.6675 44.0343 39.1226 43.6772 38.5628C43.1123 37.6802 42.5796 36.6717 42.7427 35.6368C42.6967 36.6957 42.4729 37.7626 41.9516 38.6853C41.4304 39.6079 40.5911 40.3783 39.5727 40.6828C38.5544 40.9873 37.3638 40.7721 36.6049 40.0303C36.3571 39.776 36.1444 39.49 35.9723 39.1798C35.5403 38.4422 35.2251 37.6425 35.0377 36.809C34.9884 36.5927 34.9516 36.3512 35.0607 36.1577C35.1124 36.0661 35.1916 35.994 35.2455 35.9036C35.4269 35.5956 35.2524 35.2076 35.0768 34.8939C34.8093 34.9191 34.6175 34.6054 34.6416 34.3376C34.6657 34.0697 34.8265 33.8373 34.9401 33.5935C35.2731 32.8746 35.1996 32.0378 35.0389 31.2628C34.8781 30.4878 34.6382 29.7174 34.6566 28.9264C34.6761 28.0896 34.0722 27.3364 33.6118 26.6369C33.3546 26.2431 33.055 25.8768 32.8311 25.4636C32.3643 24.5939 32.2564 23.577 32.5303 22.6292C32.691 22.1425 32.9019 21.6737 33.1594 21.2303L33.5383 20.5217C33.6088 20.3524 33.7183 20.202 33.858 20.0827C33.9976 19.9634 34.1634 19.8785 34.342 19.8349L36.9631 18.8046C37.2983 18.6905 37.6165 18.5318 37.9091 18.333C38.2295 18.0926 38.4683 17.7606 38.7737 17.5042C38.8182 17.4576 38.8716 17.4203 38.9307 17.3946C38.9898 17.3688 39.0536 17.3551 39.1181 17.3542C39.3638 17.376 39.451 17.6851 39.4763 17.9266C39.5337 18.4669 39.9355 18.9248 40.0722 19.4503C40.8115 22.3522 42.3764 25.0286 42.8058 27.9911C43.288 26.8361 43.7702 25.6788 44.3879 24.5913C44.4853 24.4351 44.5672 24.2699 44.6324 24.0979C44.7066 23.8498 44.7342 23.5902 44.714 23.3321C44.683 22.5868 44.4843 21.8588 44.288 21.1387C44.0331 20.1589 43.8035 19.2557 43.5383 18.2849Z" fill="#3F3D56"/>
<path d="M48.5336 27.1521C48.5842 27.6398 48.6335 28.1286 48.7242 28.6105C48.8299 29.168 48.9906 29.7129 49.1502 30.2578C49.2281 30.5641 49.3398 30.8608 49.4831 31.1427C49.5351 31.2245 49.5764 31.3126 49.606 31.4048C49.6622 31.6338 49.5336 31.8627 49.4785 32.0917C49.3132 32.7785 49.8092 33.542 49.4969 34.1751C49.4028 34.3674 49.2386 34.5265 49.1766 34.7326C49.1042 34.9695 49.1766 35.2225 49.2145 35.4675C49.3121 36.1543 49.0767 36.8526 48.8448 37.5131L48.4498 38.6281C48.0893 37.9596 47.7254 37.2842 47.2271 36.7107C47.0491 36.5046 46.8551 36.3134 46.6909 36.0959C46.4461 35.7542 46.2527 35.3785 46.1169 34.981C45.7664 34.0364 45.5661 33.043 45.5233 32.0367C45.4948 31.7506 45.5281 31.4618 45.6209 31.1896C45.6969 31.0322 45.782 30.8793 45.8758 30.7317C46.1835 30.1788 46.2466 29.524 46.2409 28.8921C46.2351 28.2602 46.1674 27.626 46.2409 26.9976C46.3008 26.4729 46.4565 25.9635 46.7001 25.4945C46.8438 25.1909 47.0574 24.9253 47.3235 24.7196C47.5221 24.5713 47.7644 24.4928 48.0124 24.4963C48.3878 24.5181 48.3017 24.8398 48.3339 25.15L48.5336 27.1521Z" fill="#3F3D56"/>
<path d="M31.6463 25.594C31.4121 26.2809 31.2008 26.9738 31.0125 27.6729C30.8288 28.3597 30.6647 29.0504 30.52 29.7448C30.4457 30.0502 30.4041 30.3625 30.396 30.6767C30.4107 31.0424 30.4736 31.4045 30.5831 31.7539C31.3225 34.4108 32.6704 36.8617 34.1882 39.166C34.6219 38.6267 35.137 38.1579 35.7152 37.7763C35.7625 37.7484 35.802 37.709 35.83 37.6618C35.8445 37.6173 35.8488 37.5701 35.8424 37.5237C35.8361 37.4773 35.8192 37.433 35.7932 37.394C35.3742 36.5377 34.7106 35.7833 34.5016 34.8527C34.4144 34.4657 34.4109 34.0628 34.3122 33.6782C34.1847 33.1802 33.9 32.7246 33.8346 32.214C33.7645 31.6577 33.9494 31.051 33.6876 30.5576C34.2215 30.3504 34.5303 29.8021 34.7565 29.2766C34.9982 28.7391 35.171 28.1733 35.2708 27.5927C35.4281 26.4796 35.2096 25.346 34.6497 24.3703C34.3763 23.8836 34.0254 23.4444 33.6107 23.0699C33.4741 22.9474 33.1514 22.596 32.9528 22.5994C32.6876 22.6051 32.6027 23.0332 32.5269 23.2256C32.2203 24.0109 31.9172 24.7973 31.6463 25.594Z" fill="#3F3D56"/>
<path d="M36.4017 38.4071C36.4361 38.4323 36.4751 38.4666 36.4659 38.5078C36.4568 38.549 36.4235 38.5593 36.3936 38.5765C36.2384 38.6863 36.1225 38.8428 36.063 39.023C35.8722 39.4517 35.7058 39.8908 35.5647 40.3383C35.3078 39.9545 35.0056 39.6028 34.6646 39.2908C34.4028 39.0504 34.11 38.8226 33.97 38.4975C33.97 38.4884 34.5716 38.0454 34.6267 37.9973C34.7955 37.8473 35.0079 37.4318 35.1824 37.3402C35.3798 37.2372 35.5681 37.6413 35.7185 37.8038C35.9254 38.0272 36.1543 38.2293 36.4017 38.4071Z" fill="#C1694F"/>
<path d="M45.7381 13.6394C45.73 13.4895 45.7105 13.3235 45.5957 13.2262C45.4949 13.1567 45.3736 13.1232 45.2513 13.1312C44.5819 13.1094 43.8896 13.2216 43.2582 12.9972C42.8426 12.8496 42.4878 12.5657 42.0825 12.3894C41.6772 12.2131 41.1583 12.1662 40.8311 12.4627C40.5831 12.6916 40.5153 13.043 40.4292 13.367C40.2397 14.082 39.9022 14.7496 39.4384 15.3268C39.1273 15.2306 38.9046 14.9536 38.761 14.6628C38.2731 13.6715 38.5131 12.4878 38.8598 11.437C38.9746 11.0844 39.102 10.7352 39.2295 10.3872L39.5096 9.61799C39.8773 9.58198 40.2189 9.4125 40.4694 9.14178L40.59 9.43368C40.9013 9.42252 41.2018 9.31666 41.4511 9.13033C41.5475 9.3112 41.7955 9.35927 41.9964 9.30089C42.1973 9.24251 42.3707 9.13033 42.5705 9.07195C43.1043 8.90024 43.6738 9.16467 44.2341 9.19443C44.4711 9.18868 44.7084 9.19556 44.9447 9.21504C45.606 9.3215 46.0733 9.94195 46.2754 10.5784C46.4097 11.002 46.5211 11.5228 46.9401 11.6728C46.9493 11.8331 46.6646 11.864 46.6405 12.0162C46.6376 12.067 46.6496 12.1175 46.6749 12.1616L47.0595 12.9847C46.8757 13.0307 46.6822 13.0211 46.5039 12.9572C46.3305 13.3636 45.7553 13.9497 45.7381 13.6394Z" fill="#192534"/>
<path d="M65.2282 15.4311C65.4231 16.0588 65.5765 16.6986 65.6875 17.3463C65.7701 17.8316 65.8184 18.3708 65.5394 18.776C66.6025 17.1814 67.7127 15.5387 69.3281 14.5096C68.9992 14.154 68.7489 13.7333 68.5937 13.275C68.4384 12.8167 68.3816 12.3309 68.4269 11.8492C68.436 11.7531 67.1008 12.2556 66.9986 12.3128C66.5302 12.5727 66.1008 12.8955 65.6439 13.1737C65.4073 13.3168 64.4223 13.6556 64.4131 13.8605C64.4131 13.9922 64.8046 14.3951 64.8781 14.5336C65.0222 14.8214 65.1395 15.1218 65.2282 15.4311Z" fill="#C1694F"/>
<path d="M70.1685 75.5732C69.906 75.3889 69.5984 75.2788 69.2782 75.2546C68.9581 75.2304 68.6373 75.2931 68.3499 75.4359C67.8298 75.7037 67.4797 76.2109 67.0066 76.5543C66.1938 77.1427 65.1203 77.1896 64.1685 77.5079C63.9159 77.5926 63.6473 77.7185 63.5405 77.9657C63.5047 78.0697 63.4904 78.1798 63.4985 78.2894C63.5066 78.399 63.5369 78.5058 63.5876 78.6034C63.7467 78.957 64.0255 79.2435 64.3752 79.4127C64.8023 79.6165 65.2937 79.6256 65.7667 79.6313L69.8769 79.6794C71.1398 79.6943 72.4108 79.7092 73.6657 79.866C73.9584 79.9026 74.2753 79.9427 74.5336 79.7996C74.9538 79.5707 75.002 78.9914 74.9699 78.5141C74.8853 77.3046 74.6142 76.1154 74.1662 74.9883C74.1169 74.8635 74.0514 74.7216 73.9125 74.6987C73.8139 74.6942 73.717 74.7251 73.6392 74.7857C72.4797 75.4725 71.0112 75.8606 69.7782 75.3111" fill="white"/>
<path d="M72.2259 49.4274C71.7667 52.0866 72.0663 54.8191 72.583 57.4669C72.6781 57.9941 72.8034 58.5154 72.9584 59.0283C73.1432 59.6121 73.3924 60.1731 73.5657 60.7603C74.0066 62.2485 73.9446 63.8397 73.8792 65.3931L73.5784 72.4618C73.5531 73.0548 73.5301 73.6615 73.7092 74.227C73.7816 74.4559 73.87 74.7421 73.6874 74.8967C73.616 74.9478 73.5326 74.9797 73.4452 74.9894C72.6237 75.1403 71.7751 75.0134 71.0342 74.6288L70.9526 67.4879C70.9274 65.2866 70.901 63.0761 70.5611 60.9023C70.2913 59.1737 69.8229 57.468 69.7919 55.7189C69.7598 53.8873 70.2098 52.0798 70.6691 50.3043C70.7678 49.9242 71.1283 49.6461 71.4245 49.3885C71.5279 49.2869 71.6537 49.2108 71.7919 49.1664C71.9297 49.1286 72.1409 49.3118 72.2259 49.4274Z" fill="#3F3D56"/>
<path opacity="0.1" d="M72.2259 49.4274C71.7667 52.0866 72.0663 54.8191 72.583 57.4669C72.6781 57.9941 72.8034 58.5154 72.9584 59.0283C73.1432 59.6121 73.3924 60.1731 73.5657 60.7603C74.0066 62.2485 73.9446 63.8397 73.8792 65.3931L73.5784 72.4618C73.5531 73.0548 73.5301 73.6615 73.7092 74.227C73.7816 74.4559 73.87 74.7421 73.6874 74.8967C73.616 74.9478 73.5326 74.9797 73.4452 74.9894C72.6237 75.1403 71.7751 75.0134 71.0342 74.6288L70.9526 67.4879C70.9274 65.2866 70.901 63.0761 70.5611 60.9023C70.2913 59.1737 69.8229 57.468 69.7919 55.7189C69.7598 53.8873 70.2098 52.0798 70.6691 50.3043C70.7678 49.9242 71.1283 49.6461 71.4245 49.3885C71.5279 49.2869 71.6537 49.2108 71.7919 49.1664C71.9297 49.1286 72.1409 49.3118 72.2259 49.4274Z" fill="black"/>
<path d="M63.6049 41.1166C63.435 41.8138 63.7955 42.5361 63.7553 43.2527C63.7323 43.6865 63.5613 44.1193 63.6405 44.5451C63.7197 44.9709 64.0251 45.2915 64.1881 45.6818C64.307 46.0078 64.3699 46.3515 64.3741 46.6983C64.4212 47.5546 64.3833 48.4155 64.3512 49.2683C64.2972 50.6992 64.257 52.1381 64.4464 53.5565C64.6114 54.7852 64.9464 55.9853 65.4419 57.1223C65.592 57.4316 65.7161 57.7529 65.8127 58.0828C65.8761 58.3901 65.9183 58.7015 65.939 59.0146C66.0481 60.0329 66.3222 61.0269 66.7507 61.9577C67.0435 62.5953 67.5544 63.1024 67.7162 63.779C67.8701 64.4269 67.7668 65.1103 67.8781 65.7662C67.9596 66.2527 68.1583 66.7129 68.2685 67.1937C68.412 67.8153 68.4086 68.4598 68.4809 69.094C68.6875 70.9256 69.5222 72.7571 69.0239 74.5338C68.9241 74.8909 68.7691 75.2538 68.8391 75.6178C68.8735 75.7964 68.9608 75.9727 68.9218 76.1501C68.8896 76.3012 68.7725 76.418 68.7128 76.5611C68.598 76.829 68.7197 77.1472 68.9241 77.3544C69.142 77.5475 69.3955 77.6968 69.6703 77.794C70.5165 78.1546 71.3925 78.5209 72.311 78.5129C72.4225 78.5188 72.5338 78.4984 72.6359 78.4533C72.8012 78.3675 72.8827 78.1809 72.9528 78.0092L73.4235 76.8484C73.4809 76.7076 73.5383 76.5428 73.4591 76.4123C73.4039 76.3407 73.3372 76.2788 73.2616 76.2291C72.8816 75.9097 72.9677 75.3133 73.0687 74.8337C73.3268 73.6018 73.4698 72.3486 73.4958 71.0904C73.5463 68.5811 73.1319 66.0868 72.7185 63.6107C72.575 62.751 72.4304 61.8856 72.1445 61.0614C71.8586 60.2371 71.4373 59.4438 71.5061 58.5876C71.5796 57.6626 71.3385 56.693 71.5061 55.7807C71.6738 54.8683 71.939 53.9754 72.11 53.0642C72.3316 51.8817 72.3867 50.6763 72.4545 49.4766C72.4832 48.9867 72.5199 48.4807 72.7495 48.0457C72.8839 47.7916 73.079 47.5741 73.2294 47.328C73.6175 46.688 73.6795 45.8947 74.0503 45.2445C74.226 44.9366 74.4683 44.6653 74.5968 44.3356C74.6871 44.0756 74.7344 43.8026 74.7369 43.5274C74.7733 42.8366 74.7348 42.1438 74.6221 41.4612C72.6677 40.4696 70.5002 39.9682 68.3075 40.0005C67.4683 40.0142 66.6198 40.0989 65.8322 40.3886C65.0814 40.6667 64.3971 41.0571 63.6049 41.1166Z" fill="#3F3D56"/>
<path d="M68.3122 77.3842C67.9746 77.8032 67.9976 78.4019 67.7817 78.8953C67.52 79.494 66.9367 79.8774 66.3834 80.2266L62.939 82.4016C62.7508 82.5161 62.5487 82.6569 62.4798 82.8698C62.4471 83.0057 62.453 83.148 62.497 83.2807C62.5792 83.568 62.7325 83.83 62.9427 84.0429C63.153 84.2557 63.4134 84.4124 63.7002 84.4987C64.0051 84.5711 64.3181 84.6031 64.6313 84.5938L66.1801 84.6144C66.652 84.6327 67.1245 84.6144 67.5935 84.5594C68.0228 84.4976 68.4408 84.3751 68.8679 84.2973C69.6451 84.1565 70.4442 84.1691 71.2226 84.0328C71.6993 83.9394 72.17 83.8182 72.6325 83.6699C73.1951 83.5017 73.768 83.3265 74.2502 82.9934C74.3829 82.9129 74.4906 82.7971 74.5613 82.6592C74.6428 82.4703 74.598 82.2539 74.5521 82.0536L73.8127 78.814C73.771 78.5442 73.6724 78.2863 73.5234 78.0573C73.3592 77.8398 73.0642 77.6956 72.8081 77.7883C72.7025 77.8363 72.6027 77.8962 72.5108 77.9669C72.1319 78.2153 71.6463 78.2565 71.1985 78.1787C70.9092 78.1271 70.5269 78.0482 70.2938 77.857C70.117 77.7116 70.0642 77.4861 69.9138 77.3212C69.8083 77.2133 69.6813 77.1286 69.5409 77.0728C69.4005 77.0169 69.2499 76.9911 69.0989 76.9971C68.9479 77.003 68.7998 77.0405 68.6643 77.1072C68.5287 77.1739 68.4088 77.2683 68.3122 77.3842Z" fill="white"/>
<path d="M66.079 14.9846C68.3699 14.9846 70.2271 13.1329 70.2271 10.8487C70.2271 8.56449 68.3699 6.71277 66.079 6.71277C63.7881 6.71277 61.9309 8.56449 61.9309 10.8487C61.9309 13.1329 63.7881 14.9846 66.079 14.9846Z" fill="#C1694F"/>
<path d="M62.8793 11.0913C63.2765 10.8692 63.2765 10.2293 63.6829 10.0164C64.0894 9.8035 64.5509 10.1732 64.8115 10.5464C65.1914 11.093 65.4551 11.7112 65.5865 12.3631C65.6232 12.5486 65.6577 12.7512 65.7978 12.8806C65.9378 13.0099 66.1215 13.0259 66.3006 13.0442C66.8249 13.0961 67.35 13.1435 67.8758 13.1862C68.4614 13.2331 69.079 13.2709 69.6106 13.0202C69.8204 12.9267 70.0006 12.7779 70.1318 12.5898C70.2371 12.4092 70.3123 12.2128 70.3546 12.0083C70.629 10.9677 70.9057 9.91454 70.9286 8.83849C70.9378 8.39433 70.8988 7.93414 70.6841 7.54493C70.5589 7.31599 70.3752 7.1168 70.3236 6.86496C70.2719 6.61312 70.4384 6.29259 70.7002 6.32006C70.4635 6.32977 70.2279 6.28512 70.0113 6.18956C69.8035 6.07509 69.6496 5.82897 69.7231 5.6046C69.1399 5.67901 68.7151 5.10435 68.2604 4.73231C68.1865 4.65923 68.0867 4.61811 67.9826 4.61784C67.9027 4.63771 67.8256 4.66731 67.753 4.70599C67.5234 4.78612 67.2834 4.63387 67.048 4.56747C66.4166 4.39118 65.6141 4.81703 65.1456 4.35913C65.1904 4.65104 64.831 4.84679 64.5348 4.84106C64.2386 4.83534 63.9332 4.72659 63.6531 4.82504C63.6937 4.89903 63.7174 4.98104 63.7224 5.06522C63.7275 5.14939 63.7139 5.23365 63.6825 5.31196C63.6512 5.39027 63.6028 5.46071 63.541 5.51822C63.4791 5.57574 63.4053 5.61892 63.3247 5.64467L63.4637 5.94688C63.3205 5.97541 63.1882 6.04327 63.0817 6.14278C62.9752 6.2423 62.8987 6.36953 62.8609 6.51009C62.7082 7.11108 62.7461 7.96505 62.7828 8.58321C62.8012 8.85451 63.0664 10.9894 62.8793 11.0913Z" fill="#192534"/>
<path d="M66.4189 16.1797C64.3351 18.5161 63.8047 21.8049 63.3603 24.9014L62.7059 29.4735C62.536 30.6594 62.3615 31.8454 62.2134 33.0348C62.1101 33.8487 62.0136 34.6752 62.1261 35.4879C62.2145 36.129 62.4292 36.7472 62.6083 37.3642C63.0744 38.9825 63.3063 40.6589 63.2972 42.3426C63.4361 41.9351 63.9172 41.7703 64.3397 41.6787C67.8848 40.9118 71.5834 41.3056 74.8862 42.8017C75.466 41.1819 75.3569 39.4098 75.5188 37.6973C75.7484 35.2556 76.5394 32.8894 76.7737 30.4522C76.8598 29.5445 76.8701 28.6321 76.8793 27.7198C76.8862 27.0501 76.8931 26.3735 76.753 25.7176C76.5968 24.9919 76.2673 24.3153 75.9263 23.6571C74.9837 21.8274 73.9365 20.0531 72.7897 18.3432C72.2126 17.4824 71.6106 16.6387 70.9838 15.8122C70.6661 15.3932 70.342 14.9788 70.0113 14.569C69.691 14.1718 69.5521 13.8272 69.0435 14.0653C68.0825 14.5141 67.1181 15.3955 66.4189 16.1797Z" fill="#007FFF"/>
<path d="M67.6129 35.6265C67.1045 35.6448 66.5955 35.6287 66.0894 35.5784C65.7139 35.5418 65.3305 35.4868 64.9642 35.5784C64.805 35.6184 64.6559 35.6913 64.5268 35.7925C64.4789 35.8349 64.4445 35.8904 64.4278 35.9521C64.4111 36.0137 64.4128 36.0789 64.4326 36.1397C64.4525 36.2004 64.4897 36.254 64.5396 36.294C64.5896 36.334 64.6502 36.3586 64.7139 36.3648L65.1066 36.3992C65.3557 36.4209 65.6152 36.4461 65.8092 36.6281C65.8889 36.6996 65.9395 36.7978 65.9516 36.904C65.9757 37.1707 65.7438 37.3161 65.536 37.4271C65.2405 37.5654 64.9674 37.7468 64.7254 37.9652C64.5359 38.1477 64.4169 38.3908 64.389 38.652C64.3881 38.6753 64.3934 38.6984 64.4043 38.719C64.4152 38.7396 64.4314 38.757 64.4512 38.7694C64.4709 38.7818 64.4936 38.7888 64.517 38.7897C64.5403 38.7906 64.5635 38.7854 64.5842 38.7745C65.0434 38.5455 65.3431 37.8667 65.8471 37.98C65.3887 38.1248 64.996 38.4259 64.738 38.8306C64.6744 38.9272 64.6454 39.0424 64.6557 39.1576C64.6659 39.2727 64.7149 39.381 64.7947 39.4649C64.8744 39.5488 64.9803 39.6033 65.095 39.6197C65.2098 39.6361 65.3267 39.6134 65.4269 39.5552C65.5015 39.5116 65.5736 39.4639 65.6427 39.4121C65.9842 39.1365 66.29 38.8196 66.5532 38.4688C66.1858 39.2415 65.8138 40.1459 66.2363 40.914C66.2574 40.9563 66.2903 40.9915 66.331 41.0155C66.3718 41.0395 66.4187 41.0511 66.4659 41.0491C66.5991 41.0353 66.6381 40.9106 66.66 40.8007C66.7288 40.447 66.7461 40.0738 66.9206 39.759C67.3247 39.0286 68.3213 38.9576 69.0802 38.6016C69.9906 38.1804 70.614 37.2737 70.8655 36.3053C70.9534 36.0229 70.9688 35.7229 70.9102 35.433C70.7415 34.7816 69.9355 34.6317 69.4177 34.9465C68.7828 35.3483 68.4143 35.6013 67.6129 35.6265Z" fill="#C1694F"/>
<path opacity="0.1" d="M66.8069 22.8135C67.6106 24.0509 69.0055 24.7481 70.2018 25.6169C70.4937 25.8064 70.7482 26.0478 70.9527 26.3289C71.2546 26.7937 71.2971 27.3844 71.2351 27.9316C71.1571 28.6539 70.924 29.3488 70.6932 30.0379L70.1915 31.5318C69.8735 32.4796 69.5451 33.4469 68.9401 34.2437C68.7851 34.4463 68.6048 34.6626 68.6117 34.9168C68.6251 35.0636 68.6757 35.2046 68.7587 35.3266C68.9523 35.6416 69.2075 35.9146 69.5091 36.1294C69.8106 36.3441 70.1524 36.4962 70.5141 36.5766C70.7307 36.6316 70.9577 36.6316 71.1743 36.5766C71.4843 36.485 71.7173 36.2332 71.9332 35.9951C72.9665 34.8584 73.9998 33.7056 74.746 32.372C75.4751 31.0704 75.9114 29.6246 76.3132 28.1926C76.4787 27.6654 76.594 27.1238 76.6576 26.5751C76.7426 25.5448 76.4716 24.5145 76.0285 23.5839C75.5853 22.6532 74.9757 21.8107 74.3476 20.9922C73.7549 20.1882 73.0963 19.4347 72.3786 18.7393C71.1295 17.5751 69.6014 16.8906 67.9297 17.5511C66.7495 18.0182 66.3075 18.9923 66.2018 20.2401C66.1124 21.141 66.3252 22.046 66.8069 22.8135Z" fill="black"/>
<path d="M67.2248 22.4997C68.0285 23.7372 69.4246 24.4344 70.6197 25.3032C70.9107 25.4946 71.164 25.7375 71.3672 26.0198C71.6691 26.4846 71.7116 27.0741 71.6496 27.6224C71.5704 28.3448 71.3385 29.0396 71.1065 29.7288L70.6048 31.2169C70.2868 32.1648 69.9584 33.1309 69.3534 33.9288C69.1995 34.1314 69.0193 34.3466 69.0262 34.6019C69.0388 34.7485 69.0895 34.8893 69.1731 35.0106C69.3665 35.3257 69.6214 35.5989 69.9228 35.8139C70.2242 36.0288 70.5658 36.1811 70.9274 36.2618C71.1444 36.3167 71.3717 36.3167 71.5887 36.2618C71.8987 36.1713 72.1306 35.9184 72.3476 35.6814C73.3809 34.5435 74.4142 33.3919 75.1605 32.0583C75.8895 30.7567 76.3258 29.3109 76.7277 27.8777C76.8936 27.351 77.0089 26.8098 77.0721 26.2614C77.157 25.2311 76.8861 24.2008 76.4441 23.269C76.0021 22.3372 75.3913 21.4958 74.7632 20.6773C74.1685 19.8776 73.5084 19.1283 72.7897 18.4371C71.5417 17.274 70.0135 16.5883 68.3419 17.25C67.1605 17.717 66.7196 18.6901 66.6129 19.939C66.5286 20.8364 66.7437 21.7366 67.2248 22.4997Z" fill="#007FFF"/>
<path d="M92.6118 63.5603C92.6127 63.8588 92.5819 64.1566 92.52 64.4486C92.5085 64.5036 92.4959 64.5631 92.4832 64.61C92.1572 65.9139 91.2375 66.8674 90.14 66.9281C90.1032 66.9281 90.0665 66.9281 90.0251 66.9281C88.8644 66.9281 87.8828 65.9299 87.559 64.5551C87.5498 64.5184 87.5418 64.4818 87.5338 64.4406C87.4718 64.1485 87.441 63.8508 87.4419 63.5523C87.4419 61.6898 88.5981 60.181 90.0251 60.181C91.4522 60.181 92.6118 61.7012 92.6118 63.5603Z" fill="#3F3D56"/>
<path opacity="0.1" d="M92.6116 63.5603C92.6125 63.8588 92.5817 64.1566 92.5198 64.4486C92.5083 64.5036 92.4957 64.5631 92.483 64.61C92.444 64.61 92.4061 64.61 92.3682 64.61C92.0839 64.5948 91.8013 64.5565 91.5232 64.4956C91.2768 64.5715 91.0251 64.6289 90.7701 64.6673C90.5746 64.6966 90.3775 64.715 90.1799 64.7222H89.9802C89.7436 64.7222 89.5074 64.7066 89.2729 64.6753C88.8938 64.6248 88.5215 64.5327 88.1627 64.4005C87.9663 64.4657 87.7662 64.5193 87.5634 64.5608C87.5542 64.5242 87.5462 64.4875 87.5382 64.4463C87.4762 64.1543 87.4454 63.8565 87.4463 63.558C87.4463 61.6955 88.6024 60.1868 90.0295 60.1868C91.4566 60.1868 92.6116 61.7013 92.6116 63.5603Z" fill="black"/>
<path d="M98.1226 57.2804C98.1237 56.4608 97.9309 55.6525 97.56 54.9211L94.5221 55.8632L97.1892 54.2995C96.7418 53.6554 96.1551 53.1196 95.4723 52.7316C94.7896 52.3437 94.0282 52.1135 93.2443 52.0581C93.1195 51.8694 92.9826 51.6889 92.8344 51.5178L88.4716 52.872L92.0503 50.7737C91.3657 50.2499 90.5622 49.9023 89.7108 49.7619C88.8595 49.6214 87.9865 49.6924 87.1692 49.9684C86.3519 50.2445 85.6154 50.7171 85.0249 51.3446C84.4345 51.972 84.0082 52.7349 83.7839 53.5657L87.521 57.8551L83.467 54.9314C82.4401 55.6576 81.709 56.7275 81.407 57.9462C81.105 59.1649 81.2521 60.4511 81.8216 61.5707C82.3911 62.6902 83.345 63.5685 84.5096 64.0455C85.6742 64.5225 86.9719 64.5665 88.1662 64.1694C89.2466 64.5654 90.4272 64.598 91.5279 64.2622C92.2952 64.4305 93.0906 64.4253 93.8556 64.2467C94.6206 64.0681 95.3358 63.7209 95.9484 63.2304C96.561 62.7399 97.0556 62.1187 97.3957 61.4125C97.7358 60.7064 97.9128 59.9331 97.9136 59.1498C97.9136 59.0353 97.9136 58.9208 97.9022 58.8063C98.0509 58.3114 98.1252 57.7971 98.1226 57.2804Z" fill="#007FFF"/>
<path opacity="0.1" d="M98.0318 58.2511C96.4275 57.9479 94.7823 57.927 93.1707 58.1893C91.3464 58.4904 89.4819 59.152 87.6977 58.6689C86.6506 58.385 85.7459 57.728 84.723 57.3628C83.736 57.0195 82.6728 56.9561 81.6518 57.1796C81.2627 58.1077 81.1499 59.1278 81.3267 60.118C81.5035 61.1083 81.9625 62.0269 82.6489 62.764C83.3353 63.5011 84.22 64.0256 85.1974 64.2749C86.1747 64.5241 87.2034 64.4875 88.1604 64.1694C89.2408 64.5654 90.4214 64.5979 91.5221 64.2621C92.2894 64.4305 93.0848 64.4252 93.8498 64.2467C94.6148 64.0681 95.3299 63.7208 95.9426 63.2304C96.5552 62.7399 97.0498 62.1187 97.3899 61.4125C97.73 60.7063 97.907 59.9331 97.9078 59.1497C97.9078 59.0353 97.9078 58.9208 97.8963 58.8063C97.9517 58.6239 97.9969 58.4385 98.0318 58.2511Z" fill="black"/>
</g>
<defs>
<clipPath id="clip0_3195_811">
<rect width="125.603" height="87" fill="white"/>
</clipPath>
</defs>
</svg>
