<svg width="141" height="33" viewBox="0 0 141 33" fill="none" xmlns="http://www.w3.org/2000/svg">
<path d="M50.4766 10.6094L49.7578 22.0781L46.1953 22.2344L46.2266 16.1875L44.6172 21.0625H43.2422L42.0078 16.7031L41.9922 21.7656L38.3828 21.875L38.5391 11.0781L42.5547 10.9219L44.1484 16.0938L46.2734 10.6094H50.4766ZM60.3984 13.3125C60.3984 13.6979 60.3802 14.1224 60.3438 14.5859C60.3073 15.0495 60.2474 15.5286 60.1641 16.0234C60.0807 16.5182 59.9714 17.0208 59.8359 17.5312C59.7057 18.0365 59.5417 18.5234 59.3438 18.9922C59.1458 19.4609 58.9141 19.901 58.6484 20.3125C58.388 20.7188 58.0859 21.0755 57.7422 21.3828C57.4036 21.6849 57.0234 21.9219 56.6016 22.0938C56.1797 22.2708 55.7109 22.3594 55.1953 22.3594C54.5911 22.3594 54.0651 22.2604 53.6172 22.0625C53.1745 21.8698 52.7943 21.6094 52.4766 21.2812C52.1589 20.9479 51.8984 20.5625 51.6953 20.125C51.4922 19.6823 51.3333 19.2161 51.2188 18.7266C51.1042 18.2318 51.0234 17.7292 50.9766 17.2188C50.9349 16.7031 50.9141 16.2083 50.9141 15.7344C50.9141 15.0052 50.9505 14.2786 51.0234 13.5547C51.0964 12.8255 51.2005 12.099 51.3359 11.375L54.9922 11.5156C54.8516 12.3333 54.7292 13.1562 54.625 13.9844C54.526 14.8073 54.4766 15.6354 54.4766 16.4688C54.4766 16.5573 54.4792 16.6901 54.4844 16.8672C54.4948 17.0391 54.5104 17.2344 54.5312 17.4531C54.5521 17.6667 54.5807 17.888 54.6172 18.1172C54.6589 18.3411 54.7135 18.5469 54.7812 18.7344C54.849 18.9219 54.9297 19.0755 55.0234 19.1953C55.1224 19.3151 55.237 19.375 55.3672 19.375C55.5182 19.375 55.6536 19.3047 55.7734 19.1641C55.8932 19.0182 55.9974 18.8255 56.0859 18.5859C56.1797 18.3464 56.2604 18.0703 56.3281 17.7578C56.3958 17.4453 56.4531 17.1198 56.5 16.7812C56.5469 16.4427 56.5833 16.1042 56.6094 15.7656C56.6406 15.4271 56.6641 15.112 56.6797 14.8203C56.7005 14.5286 56.7135 14.2708 56.7188 14.0469C56.724 13.8229 56.7266 13.6562 56.7266 13.5469C56.7266 13.1406 56.7188 12.737 56.7031 12.3359C56.6927 11.9297 56.6745 11.526 56.6484 11.125H60.3047C60.3672 11.8438 60.3984 12.5729 60.3984 13.3125ZM69.0234 17.8438C69.0234 18.5573 68.8984 19.1823 68.6484 19.7188C68.4036 20.25 68.0651 20.6927 67.6328 21.0469C67.2057 21.401 66.7031 21.6667 66.125 21.8438C65.5521 22.0208 64.9349 22.1094 64.2734 22.1094C64.0182 22.1094 63.737 22.0755 63.4297 22.0078C63.1276 21.9401 62.8203 21.8568 62.5078 21.7578C62.1953 21.6536 61.8932 21.5443 61.6016 21.4297C61.3151 21.3099 61.0599 21.1979 60.8359 21.0938L61.1797 17.875C61.6224 18.1406 62.112 18.3438 62.6484 18.4844C63.1901 18.6198 63.7214 18.6875 64.2422 18.6875C64.3411 18.6875 64.4609 18.6849 64.6016 18.6797C64.7422 18.6693 64.875 18.6458 65 18.6094C65.1302 18.5677 65.2396 18.5078 65.3281 18.4297C65.4167 18.3516 65.4609 18.2396 65.4609 18.0938C65.4609 17.9948 65.4297 17.9115 65.3672 17.8438C65.3047 17.7708 65.224 17.7135 65.125 17.6719C65.026 17.625 64.9141 17.5911 64.7891 17.5703C64.6641 17.5443 64.5417 17.526 64.4219 17.5156C64.3021 17.5052 64.1901 17.5 64.0859 17.5C63.9818 17.5 63.8984 17.5 63.8359 17.5C63.388 17.5 62.9792 17.4219 62.6094 17.2656C62.2448 17.1094 61.9297 16.8932 61.6641 16.6172C61.4036 16.3359 61.2005 16.0052 61.0547 15.625C60.9089 15.2396 60.8359 14.8229 60.8359 14.375C60.8359 13.7604 60.9583 13.2109 61.2031 12.7266C61.4531 12.237 61.7839 11.8229 62.1953 11.4844C62.612 11.1406 63.0885 10.8776 63.625 10.6953C64.1615 10.513 64.7161 10.4219 65.2891 10.4219C65.5443 10.4219 65.8073 10.4323 66.0781 10.4531C66.349 10.4688 66.6172 10.5 66.8828 10.5469C67.1536 10.5938 67.4167 10.6536 67.6719 10.7266C67.9271 10.7995 68.1693 10.8906 68.3984 11L68.1016 14.1719C67.7474 14.0521 67.375 13.9531 66.9844 13.875C66.599 13.7917 66.2214 13.75 65.8516 13.75C65.7839 13.75 65.6953 13.7526 65.5859 13.7578C65.4818 13.7578 65.3698 13.7656 65.25 13.7812C65.1354 13.7917 65.0182 13.8099 64.8984 13.8359C64.7786 13.862 64.6719 13.8984 64.5781 13.9453C64.4844 13.987 64.4089 14.0443 64.3516 14.1172C64.2943 14.1901 64.2682 14.276 64.2734 14.375C64.2786 14.4896 64.3203 14.5833 64.3984 14.6562C64.4818 14.724 64.5859 14.7786 64.7109 14.8203C64.8411 14.8568 64.9818 14.8828 65.1328 14.8984C65.2891 14.9141 65.4427 14.9245 65.5938 14.9297C65.7448 14.9297 65.8854 14.9297 66.0156 14.9297C66.1458 14.9245 66.2526 14.9271 66.3359 14.9375C66.7526 14.9635 67.1276 15.0521 67.4609 15.2031C67.7943 15.3542 68.0755 15.5547 68.3047 15.8047C68.5391 16.0547 68.7161 16.3542 68.8359 16.7031C68.9609 17.0469 69.0234 17.4271 69.0234 17.8438ZM73.7422 11L72.8828 21.6406L69.5859 21.8125V11.2188L73.7422 11ZM81.9375 11.0156L81.5 14.3125C81.349 14.2708 81.1979 14.2422 81.0469 14.2266C80.8958 14.2109 80.7448 14.2031 80.5938 14.2031C80.2083 14.2031 79.8411 14.2552 79.4922 14.3594C79.1432 14.4583 78.8333 14.612 78.5625 14.8203C78.2969 15.0286 78.0833 15.2891 77.9219 15.6016C77.7656 15.9141 77.6875 16.2812 77.6875 16.7031C77.6875 16.974 77.7292 17.2083 77.8125 17.4062C77.901 17.6042 78.0234 17.7682 78.1797 17.8984C78.3359 18.0286 78.5208 18.125 78.7344 18.1875C78.9479 18.25 79.1823 18.2812 79.4375 18.2812C79.6302 18.2812 79.8307 18.2604 80.0391 18.2188C80.2474 18.1771 80.4531 18.1224 80.6562 18.0547C80.8594 17.987 81.0573 17.9089 81.25 17.8203C81.4427 17.7318 81.6198 17.6406 81.7812 17.5469L81.4688 21.2188C81.2656 21.3229 81.0443 21.4167 80.8047 21.5C80.5703 21.5781 80.3281 21.6484 80.0781 21.7109C79.8281 21.7682 79.5781 21.8125 79.3281 21.8438C79.0781 21.875 78.8385 21.8906 78.6094 21.8906C77.9479 21.8906 77.3307 21.7682 76.7578 21.5234C76.1849 21.2786 75.6875 20.9427 75.2656 20.5156C74.8438 20.0885 74.5104 19.5859 74.2656 19.0078C74.026 18.4245 73.9062 17.7969 73.9062 17.125C73.9062 16.2344 74.0339 15.3958 74.2891 14.6094C74.5443 13.8177 74.9193 13.125 75.4141 12.5312C75.9089 11.9375 76.5208 11.4688 77.25 11.125C77.9844 10.7812 78.8281 10.6094 79.7812 10.6094C80.1406 10.6094 80.5078 10.638 80.8828 10.6953C81.263 10.7526 81.6146 10.8594 81.9375 11.0156ZM92.9531 10.7344C92.9219 11.224 92.8932 11.7083 92.8672 12.1875C92.8411 12.6667 92.8073 13.151 92.7656 13.6406L89.4531 13.8125V14.7969H92.3281L92.1719 17.2188L89.4375 17.2969L89.4531 21.9219L85.5 22L85.75 10.7344H92.9531ZM102.805 16.4844C102.805 16.9583 102.75 17.4167 102.641 17.8594C102.531 18.2969 102.372 18.7083 102.164 19.0938C101.961 19.4792 101.711 19.8333 101.414 20.1562C101.122 20.474 100.792 20.7474 100.422 20.9766C100.057 21.2057 99.6589 21.3854 99.2266 21.5156C98.7943 21.6406 98.3359 21.7031 97.8516 21.7031C97.3828 21.7031 96.9349 21.6432 96.5078 21.5234C96.0859 21.4036 95.6901 21.237 95.3203 21.0234C94.9505 20.8047 94.6146 20.5443 94.3125 20.2422C94.0156 19.9349 93.7604 19.5964 93.5469 19.2266C93.3385 18.8516 93.1745 18.4505 93.0547 18.0234C92.9401 17.5964 92.8828 17.151 92.8828 16.6875C92.8828 16.2344 92.9375 15.7917 93.0469 15.3594C93.1562 14.9219 93.3125 14.5104 93.5156 14.125C93.724 13.7396 93.974 13.3854 94.2656 13.0625C94.5573 12.7396 94.8828 12.4609 95.2422 12.2266C95.6068 11.9922 96 11.8099 96.4219 11.6797C96.8438 11.5495 97.2891 11.4844 97.7578 11.4844C98.513 11.4844 99.2005 11.6016 99.8203 11.8359C100.445 12.0703 100.977 12.4062 101.414 12.8438C101.857 13.276 102.198 13.8021 102.438 14.4219C102.682 15.0365 102.805 15.724 102.805 16.4844ZM99.3359 16.6875C99.3359 16.4635 99.3021 16.2474 99.2344 16.0391C99.1719 15.8255 99.0781 15.638 98.9531 15.4766C98.8281 15.3099 98.6719 15.1771 98.4844 15.0781C98.3021 14.974 98.0911 14.9219 97.8516 14.9219C97.6068 14.9219 97.388 14.9661 97.1953 15.0547C97.0026 15.1432 96.8359 15.2656 96.6953 15.4219C96.5599 15.5729 96.4557 15.7526 96.3828 15.9609C96.3099 16.1641 96.2734 16.3802 96.2734 16.6094C96.2734 16.8281 96.3047 17.0469 96.3672 17.2656C96.4297 17.4844 96.5234 17.6823 96.6484 17.8594C96.7734 18.0365 96.9271 18.1797 97.1094 18.2891C97.2969 18.3984 97.513 18.4531 97.7578 18.4531C98.0026 18.4531 98.2214 18.4062 98.4141 18.3125C98.612 18.2135 98.7786 18.0833 98.9141 17.9219C99.0495 17.7552 99.1536 17.5651 99.2266 17.3516C99.2995 17.138 99.3359 16.9167 99.3359 16.6875ZM112.508 14.4688C112.508 14.875 112.471 15.2448 112.398 15.5781C112.331 15.9062 112.221 16.2083 112.07 16.4844C111.919 16.7604 111.724 17.0156 111.484 17.25C111.245 17.4844 110.956 17.7083 110.617 17.9219L112.477 21.2344L108.961 21.9219L107.758 18.5938L106.789 18.625L106.648 21.875H103.289C103.315 20.6875 103.339 19.5052 103.359 18.3281C103.385 17.151 103.414 15.9688 103.445 14.7812C103.456 14.1823 103.466 13.5885 103.477 13C103.487 12.4115 103.508 11.8177 103.539 11.2188C103.904 11.0833 104.263 10.9714 104.617 10.8828C104.971 10.7943 105.326 10.7266 105.68 10.6797C106.039 10.6276 106.401 10.5938 106.766 10.5781C107.135 10.5573 107.513 10.5469 107.898 10.5469C108.492 10.5469 109.065 10.6302 109.617 10.7969C110.174 10.9583 110.667 11.2031 111.094 11.5312C111.521 11.8594 111.862 12.2682 112.117 12.7578C112.378 13.2474 112.508 13.8177 112.508 14.4688ZM109.008 14.7188C109.008 14.5 108.977 14.2995 108.914 14.1172C108.857 13.9349 108.768 13.7786 108.648 13.6484C108.534 13.513 108.388 13.4089 108.211 13.3359C108.039 13.2578 107.836 13.2188 107.602 13.2188C107.497 13.2188 107.396 13.2266 107.297 13.2422C107.198 13.2526 107.102 13.2708 107.008 13.2969L106.883 16.2031H107.07C107.294 16.2031 107.521 16.1745 107.75 16.1172C107.984 16.0599 108.193 15.9714 108.375 15.8516C108.562 15.7318 108.714 15.5781 108.828 15.3906C108.948 15.2031 109.008 14.9792 109.008 14.7188ZM126.031 21.3281L122.156 21.8281L121.688 20.0625H119.906L119.516 21.8281L115.531 21.4375L118.641 11.0312L122.984 10.8125L126.031 21.3281ZM121.406 17.6719L120.812 14.9531L120.234 17.6719H121.406ZM133.062 17.5469L132.734 21.0156L126.156 21.5312C126.188 19.7135 126.221 17.9062 126.258 16.1094C126.299 14.3125 126.349 12.5052 126.406 10.6875H130.469C130.349 11.8281 130.234 12.9688 130.125 14.1094C130.016 15.2448 129.938 16.3906 129.891 17.5469C130.135 17.5573 130.378 17.5625 130.617 17.5625C130.857 17.5625 131.099 17.5625 131.344 17.5625C131.635 17.5625 131.922 17.5599 132.203 17.5547C132.484 17.5495 132.771 17.5469 133.062 17.5469ZM140.297 17.5469L139.969 21.0156L133.391 21.5312C133.422 19.7135 133.456 17.9062 133.492 16.1094C133.534 14.3125 133.583 12.5052 133.641 10.6875H137.703C137.583 11.8281 137.469 12.9688 137.359 14.1094C137.25 15.2448 137.172 16.3906 137.125 17.5469C137.37 17.5573 137.612 17.5625 137.852 17.5625C138.091 17.5625 138.333 17.5625 138.578 17.5625C138.87 17.5625 139.156 17.5599 139.438 17.5547C139.719 17.5495 140.005 17.5469 140.297 17.5469Z" fill="white"/>
<circle cx="16.5" cy="16.5" r="16.5" fill="#1E71FF"/>
<path d="M6 7H12L12.5 26H8.5L6 7Z" fill="white"/>
<path d="M15 12H20L19 23L15 23.5V12Z" fill="white"/>
<path d="M22 7H27.5L26 26H21.5L22 7Z" fill="white"/>
</svg>
