<svg width="151" height="112" viewBox="0 0 151 112" fill="none" xmlns="http://www.w3.org/2000/svg">
<g clip-path="url(#clip0_2808_1274)">
<path d="M139.111 27.2256C121.973 3.41155 85.7692 -6.24846 50.1641 4.15561C31.3408 9.65592 13.1916 20.6766 4.19726 42.0163C-11.881 80.1632 21.8774 92.3464 43.9517 96.2293C54.6256 98.1069 64.6786 101.261 73.8652 105.555C90.3926 113.28 119.647 120.126 141.707 87.9459C157.696 64.6219 150.527 43.0881 139.111 27.2256Z" fill="#F5FAFF"/>
<path d="M39.7496 31.9371C39.7016 31.5586 39.6047 31.1879 39.4611 30.8344C39.4428 30.7676 39.4108 30.7052 39.367 30.6514C39.3233 30.5976 39.2688 30.5535 39.207 30.5219C39.1245 30.5004 39.0379 30.4995 38.9549 30.5191L37.6603 30.7169C37.552 30.7218 37.4482 30.7621 37.365 30.8315C37.1963 31.0085 37.3624 31.2936 37.3572 31.5379C37.3514 31.8126 37.107 32.0356 36.8419 32.1093C36.5714 32.1639 36.2923 32.1605 36.0232 32.0992L34.213 31.8183C34.7462 31.6483 35.2207 31.3321 35.5824 30.9058C35.8207 30.624 35.9474 30.0979 35.6031 29.9645C35.5008 29.9364 35.3942 29.9279 35.2887 29.9393C34.4686 29.9456 33.8232 29.2619 33.0554 28.9739C32.564 28.8015 32.0306 28.7887 31.5315 28.9372C31.0323 29.0858 30.593 29.3882 30.2764 29.8011L31.2407 29.8476C31.3314 29.8426 31.4214 29.8665 31.4975 29.916C31.7089 30.0893 31.4461 30.4224 31.4759 30.6939C31.5146 31.0466 31.9836 31.1219 32.3372 31.1576C32.6907 31.1932 33.1392 31.4801 32.9692 31.7916C31.1922 32.4028 29.3839 30.5969 27.5176 30.8192C27.0453 30.8755 26.5993 31.0607 26.1381 31.1773C23.3211 31.889 20.4087 29.99 17.531 30.3922C16.8912 30.5011 16.2624 30.6667 15.6521 30.887C15.2604 31.0154 14.8519 31.1542 14.5673 31.452C14.2827 31.7498 14.1744 32.2592 14.444 32.5706C13.7009 32.6317 12.9528 32.5607 12.2346 32.3609C12.4288 32.4687 12.5904 32.6267 12.7024 32.8184C12.8144 33.01 12.8726 33.2283 12.871 33.4502C11.7107 33.6391 10.5812 33.983 9.51279 34.4726C9.7122 34.8038 9.94511 35.1136 10.2079 35.3972L8.73901 36.3395C9.23526 36.4644 9.49183 37.14 9.20324 37.562C9.71779 37.3335 10.0367 36.7422 10.5869 36.6223C10.9474 36.5437 11.3142 36.691 11.6561 36.8293C11.9981 36.9676 12.3739 37.1018 12.7279 36.9979C13.0819 36.8941 13.3431 36.4358 13.1181 36.1438C14.6312 35.7029 16.195 35.459 17.7706 35.4179C17.8922 35.4027 18.0154 35.4261 18.123 35.4847C18.3281 35.6268 18.2741 35.9337 18.2631 36.1827C18.252 36.4318 18.4464 36.7591 18.6693 36.6468C18.407 36.8739 18.6312 37.3014 18.8828 37.5401C19.1344 37.7789 19.4377 38.1084 19.2836 38.419C19.2434 38.5001 19.1752 38.5649 19.1366 38.6467C19.0224 38.8882 19.2037 39.1697 19.4175 39.33C19.6313 39.4904 19.8932 39.6024 20.0417 39.8245C20.1903 40.0465 20.1228 40.4352 19.8572 40.4662L19.1023 39.5091C18.8444 39.7761 18.6676 40.1107 18.5924 40.4741C19.3929 41.1275 19.5133 42.4576 18.8431 43.2438C18.5006 43.6456 18.0136 43.8897 17.5885 44.2031C17.1634 44.5165 16.7701 44.9628 16.7711 45.4904C16.773 46.4019 16.6984 47.2488 17.0405 48.0939C17.6713 49.6522 18.3995 51.1694 19.2209 52.6365C19.4367 53.0217 19.7154 53.444 20.1524 53.5103C19.6002 52.1678 19.103 50.8044 18.661 49.4201C18.9489 49.4212 19.2816 49.444 19.4504 49.677C19.5901 49.8698 19.5601 50.132 19.6035 50.3661C19.6588 50.5929 19.7509 50.8091 19.8762 51.0061L22.5134 55.697C22.732 56.0859 22.9828 56.5033 23.4006 56.6608C23.6678 56.7615 23.9768 56.7425 24.2227 56.8875C24.4154 57.0011 24.5453 57.2028 24.7417 57.3098C25.2973 57.6124 26.0698 57.032 26.589 57.3934C26.7374 57.4967 26.8319 57.6608 26.9687 57.7791C27.4482 58.1937 28.2347 57.9163 28.7883 58.2256C29.145 58.425 29.3299 58.8237 29.5202 59.185C29.9968 60.09 30.768 60.9766 31.7895 61.0487C32.1103 61.0713 32.4381 61.0106 32.7517 61.0818C33.0653 61.1531 33.3741 61.4264 33.3237 61.7436C33.2374 62.2875 33.5065 62.883 33.4343 63.4289C33.3026 64.4233 31.8901 64.8603 31.7688 65.856C31.7422 66.074 31.7838 66.299 31.7318 66.5124C31.6681 66.7739 31.4714 66.9869 31.4015 67.2468C31.2691 67.7395 31.6225 68.2297 32.0108 68.5612C32.3991 68.8926 32.8623 69.1784 33.0746 69.6423C33.2989 70.1327 33.1887 70.7045 33.2617 71.2387C33.421 72.4049 34.4297 73.2694 35.4679 73.8269C35.7842 73.9967 36.1238 74.1612 36.3285 74.4558C36.5957 74.8404 36.5691 75.3473 36.6583 75.8068C36.8768 76.9322 37.8256 77.8594 37.8525 79.0054C37.8716 79.82 37.4182 80.5589 37.1474 81.3275C36.8934 82.0638 36.8015 82.8462 36.8779 83.6213C36.9544 84.3963 37.1973 85.1458 37.5902 85.8186C37.7928 86.1602 38.0352 86.4823 38.1785 86.8527C38.4343 87.5136 38.3513 88.2649 38.5871 88.9332C38.8989 89.8168 39.7557 90.5466 39.6737 91.4798C40.0627 92.2864 40.9216 92.6827 41.7853 92.9227L43.3332 93.353C43.6296 93.4354 43.9393 93.5184 44.2411 93.4588C44.5429 93.3991 44.8309 93.1489 44.8231 92.8418C44.0641 92.6708 43.2806 92.489 42.6549 92.0271C42.0292 91.5653 41.6005 90.7427 41.8379 90.0028C41.948 89.6596 42.1822 89.2634 41.9596 88.9799C41.8321 88.8176 41.5989 88.7752 41.4551 88.6271C41.2308 88.396 41.3079 88.008 41.4692 87.7294C41.6304 87.4508 41.8635 87.2019 41.9285 86.8867C41.9613 86.7104 41.9394 86.5283 41.8656 86.3648C41.7919 86.2013 41.6698 86.0643 41.5158 85.972C41.8028 85.8638 42.0639 85.6966 42.282 85.4811C42.4835 85.2514 42.5765 84.8971 42.418 84.636C42.8887 84.6956 43.4444 84.7248 43.7533 84.3652C44.0001 84.0781 43.9831 83.6489 43.8856 83.2833C43.7882 82.9178 43.6234 82.5627 43.6182 82.1844C44.704 82.2358 45.7921 82.1989 46.8719 82.0742C46.7158 81.5491 46.361 81.1054 45.8827 80.8371C46.3717 80.7545 46.8172 80.1699 46.9718 79.6993C47.1263 79.2286 47.0868 78.716 46.9914 78.23C46.9547 78.1049 46.9496 77.9726 46.9767 77.8451C47.0318 77.6698 47.2042 77.5629 47.3637 77.4714L49.7911 76.0794C49.9359 76.0069 50.0672 75.9101 50.1792 75.7932C50.4336 75.4949 50.3959 75.0447 50.2657 74.6751C50.1354 74.3056 49.9269 73.9581 49.8767 73.5695C49.7267 72.4075 50.9724 71.5738 51.3928 70.48C51.5578 70.0507 51.5914 69.5841 51.6233 69.1254C51.6576 68.6328 51.6602 68.0606 51.2814 67.7431C50.9182 67.4388 50.3509 67.5067 49.9709 67.2236C49.6225 66.9641 49.5023 66.46 49.1218 66.2504C48.7762 66.06 48.3428 66.1811 47.9584 66.0916C47.2816 65.9339 46.8557 65.155 46.1645 65.0829C45.7745 65.0422 45.3332 65.2326 45.0135 65.0058C44.7319 64.806 44.7206 64.4043 44.667 64.0635C44.573 63.5338 44.3188 63.0456 43.9385 62.6646C43.5581 62.2836 43.07 62.0281 42.5399 61.9326C42.1378 61.8682 41.7001 61.8927 41.358 61.672C41.0117 61.4486 40.8528 61.0303 40.5807 60.7208C40.1422 60.2222 39.4516 60.045 38.8046 59.8931L36.1731 59.2754C35.7059 59.1657 35.1037 59.1075 34.8531 59.5162C34.7788 59.6717 34.7263 59.8367 34.6969 60.0066C34.603 60.3137 34.4139 60.5833 34.157 60.7764C33.9 60.9695 33.5883 61.0764 33.2667 61.0815C33.0462 60.7058 32.6888 60.4298 32.2693 60.3109C32.0025 60.2366 31.7169 60.2284 31.4624 60.1191C31.3238 60.0516 31.2004 59.9565 31.0999 59.8397C30.9994 59.7229 30.9238 59.5868 30.8777 59.4398C30.8317 59.2929 30.8162 59.138 30.8321 58.9848C30.8481 58.8317 30.8952 58.6833 30.9705 58.549C31.1222 58.2792 31.1808 57.9671 31.1372 57.6608C31.0937 57.3545 30.9503 57.071 30.7294 56.8542C30.2819 56.453 29.6345 56.356 29.0344 56.3962C28.8773 56.0537 29.14 55.6674 29.4232 55.4185C29.7064 55.1697 30.0503 54.925 30.1119 54.5534C30.2089 53.9689 29.462 53.5249 28.8949 53.6992C28.3278 53.8735 27.9658 54.4235 27.7265 54.9658C27.5892 55.2769 27.4725 55.6045 27.2559 55.8668C27.0394 56.1291 26.6907 56.3169 26.3608 56.2327C25.8938 56.1136 25.7135 55.5596 25.6101 55.0895C25.4714 54.4587 25.332 53.8193 25.361 53.1742C25.3901 52.5291 25.6079 51.8667 26.0842 51.43C26.8605 50.7184 28.0514 50.7881 29.099 50.9017C28.8515 50.6232 28.9127 50.1539 29.1775 49.8918C29.3173 49.7677 29.4853 49.6796 29.6669 49.6351C29.8485 49.5905 30.0382 49.5909 30.2197 49.6361C30.5354 49.7017 30.8198 49.8715 31.0271 50.1181C31.3248 50.4806 31.4094 50.97 31.6345 51.3814C31.8595 51.7928 32.3655 52.1437 32.7796 51.9229C33.1374 51.7323 33.1941 51.237 33.1051 50.842C33.0161 50.447 32.827 50.0629 32.8592 49.6593C32.9208 48.8891 33.7202 48.4256 34.4257 48.1084C35.1312 47.7912 35.9391 47.3647 36.0508 46.6002C36.0547 46.4505 36.0829 46.3025 36.1346 46.1619C36.2128 46.0377 36.3215 45.9356 36.4504 45.8653C38.5094 44.5065 40.6027 43.1312 42.956 42.3887C43.0785 42.3501 43.0928 42.393 43.2176 42.3628C43.3922 42.262 43.2765 41.9832 43.1091 41.8709C42.9417 41.7585 42.7179 41.6724 42.6754 41.4755C42.6442 41.3308 42.7296 41.1887 42.7518 41.0423C42.8063 40.6826 42.3753 40.3504 42.0406 40.4943C41.8516 40.2443 42.2257 39.9538 42.5281 39.8706C43.4363 39.621 44.3686 39.469 45.3092 39.417C45.4177 39.3998 45.5289 39.4186 45.6256 39.4707C45.7836 39.58 45.7634 39.8306 45.6515 39.9866C45.5395 40.1426 45.3654 40.2405 45.2259 40.3725C45.0734 40.5207 44.9647 40.708 44.9116 40.9137C44.8584 41.1195 44.8629 41.3359 44.9245 41.5393C45.4155 41.7887 45.9493 42.0454 46.4932 41.9575C47.037 41.8697 47.5197 41.2595 47.264 40.7722C47.026 40.3185 46.311 40.2161 46.188 39.7188C46.0441 39.1365 46.8695 38.6186 46.6836 38.0483C46.6021 37.7985 46.3528 37.6515 46.1615 37.4711C45.9356 37.25 45.7819 36.9658 45.7206 36.6559C45.6594 36.346 45.6934 36.0248 45.8183 35.7345C45.5067 35.7893 45.1865 35.7686 44.8845 35.6742C44.5825 35.5799 44.3076 35.4146 44.0829 35.1922C43.6678 34.7739 43.3366 34.114 42.7472 34.1327C42.2062 34.1499 41.7403 34.7801 41.2346 34.5878C41.1101 34.5405 40.9789 34.4443 40.8584 34.5007C40.8189 34.5263 40.7857 34.5605 40.7614 34.6008C40.7371 34.6411 40.7223 34.6864 40.718 34.7333C40.5895 35.3469 40.8106 36.046 40.4757 36.5763C40.1112 37.1533 39.2682 37.2333 38.8264 37.7536C38.5865 38.0361 38.4936 38.4167 38.2731 38.7145C38.0527 39.0122 37.5848 39.2016 37.3202 38.9421C37.4502 38.6751 37.4857 38.3721 37.4209 38.0824C37.3561 37.7927 37.1948 37.5335 36.9634 37.3472C36.7177 37.1872 36.4529 37.0586 36.1752 36.9644C35.8649 36.8333 35.5697 36.669 35.2948 36.4744C35.157 36.3915 35.0451 36.2719 34.9715 36.1291C34.9133 35.9502 34.9212 35.7565 34.9936 35.5829C35.1278 35.1989 35.3645 34.8587 35.6781 34.5991C35.9917 34.3395 36.3704 34.1704 36.7733 34.11C37.1255 34.0622 37.5355 34.079 37.7686 33.811C37.892 33.6692 37.9567 33.4548 38.1358 33.3972C38.2503 33.3742 38.3692 33.3889 38.4747 33.4389L39.7895 33.901C39.9362 33.9672 40.0977 33.9938 40.2579 33.9784C40.3374 33.9677 40.4098 33.9274 40.4608 33.8656C40.5117 33.8038 40.5373 33.725 40.5325 33.6451C40.4905 33.4271 40.1545 33.3225 40.1851 33.1025C40.2022 33.0313 40.2406 32.9669 40.2952 32.9178C40.7697 32.4135 41.35 32.0202 41.9945 31.766C42.6391 31.5119 43.3319 31.4032 44.0235 31.4477C44.1894 31.7198 43.9269 32.0421 43.7086 32.2745C43.4902 32.5068 43.3147 32.9219 43.5788 33.1008C43.687 33.1559 43.8074 33.183 43.9289 33.1795C44.2526 33.2233 44.5672 33.3185 44.8607 33.4617C45.315 33.6592 45.7607 33.8752 46.1976 34.1098C46.159 33.8222 46.1222 33.5191 46.2313 33.2501C46.3405 32.9812 46.6509 32.7702 46.9219 32.875C47.1831 32.9759 47.3171 33.3213 47.5954 33.3529C47.9667 33.3952 48.1131 32.8475 47.9581 32.508C47.803 32.1686 47.496 31.8843 47.4704 31.5121C47.4531 31.261 47.5488 30.9495 47.3479 30.7975C47.2764 30.7518 47.1953 30.7234 47.1109 30.7145L42.0951 29.7928C41.7972 29.7381 41.3669 29.78 41.3537 30.0822C41.3463 30.2508 41.4972 30.4177 41.4303 30.5727C41.359 30.7382 41.1247 30.7231 40.9541 30.7816C40.6893 30.8724 40.5565 31.1864 40.5819 31.4648C40.6285 31.7414 40.7358 32.0043 40.8961 32.2346C40.5698 32.0984 40.0758 32.0733 39.7496 31.9371Z" fill="#007FFF"/>
<path d="M35.7473 27.6854C35.431 27.5809 35.0902 27.576 34.771 27.6715C34.4519 27.7669 34.1698 27.958 33.9631 28.219C33.8805 28.3275 33.8112 28.4772 33.8803 28.5948C33.9794 28.7634 34.232 28.6968 34.4182 28.6365C34.6919 28.5388 34.9899 28.5317 35.2679 28.6162C35.4428 28.6762 35.5992 28.7821 35.7748 28.8398C35.8603 28.8755 35.9539 28.8873 36.0456 28.874C36.1373 28.8606 36.2236 28.8225 36.2953 28.7639C36.4158 28.6411 36.4234 28.4503 36.4236 28.2784C36.432 28.2209 36.4274 28.1622 36.4101 28.1067C36.3929 28.0512 36.3635 28.0002 36.324 27.9575C36.2537 27.9168 36.1747 27.8935 36.0936 27.8894C35.9118 27.8558 35.7476 27.76 35.629 27.6184" fill="#007FFF"/>
<path d="M37.556 27.1826C37.4852 27.1788 37.4146 27.1932 37.351 27.2244C37.2875 27.2557 37.233 27.3028 37.1929 27.3611C37.1528 27.4195 37.1284 27.4872 37.122 27.5577C37.1157 27.6282 37.1276 27.6991 37.1567 27.7637C37.374 27.8229 37.6011 27.8377 37.8244 27.8072C37.9357 27.7899 38.0395 27.7401 38.1225 27.6641C38.2056 27.588 38.2642 27.4892 38.2911 27.3799C38.0283 27.4276 37.757 27.3759 37.5303 27.2348" fill="#007FFF"/>
<path d="M43.6241 26.3429C43.0325 26.4685 42.4577 26.6635 41.9119 26.9237C42.1692 27.0225 42.3879 27.2012 42.5359 27.4335C42.6838 27.6658 42.7531 27.9394 42.7335 28.214C42.7104 28.3194 42.7131 28.4288 42.7413 28.533C42.8042 28.6852 42.9864 28.7423 43.1466 28.7814C43.4345 28.8689 43.735 28.9072 44.0356 28.8947C44.186 28.8869 44.332 28.8417 44.4605 28.7633C44.589 28.6849 44.6959 28.5757 44.7715 28.4457C44.815 28.3223 44.8661 28.2017 44.9245 28.0845C45.3085 27.5005 46.4493 28.2066 46.8615 27.6422C47.0068 27.4434 46.9935 27.1441 47.1828 26.9865C47.2808 26.9179 47.3943 26.8747 47.5131 26.8607C48.3422 26.6962 49.1797 26.5771 50.0218 26.5039C50.4209 26.4692 50.941 26.3262 50.9443 25.9262C49.4413 25.6315 47.883 25.8408 46.5114 26.5217C46.0173 26.7688 45.3637 27.2887 44.8877 26.9611C44.7095 26.8384 44.7184 26.508 44.4731 26.3701C44.2223 26.2291 43.8903 26.2864 43.6241 26.3429Z" fill="#007FFF"/>
<path d="M48.5392 27.2607L49.2447 27.3961C49.1149 27.3903 48.9853 27.4123 48.8646 27.4605C48.7439 27.5088 48.6349 27.5821 48.5448 27.6758C48.4548 27.7694 48.3858 27.8811 48.3424 28.0035C48.2991 28.1258 48.2823 28.256 48.2933 28.3854C48.954 28.6058 49.6743 28.3913 50.3703 28.4206C51.0662 28.4499 51.876 28.9463 51.7572 29.6317C51.7212 29.8389 51.6013 30.046 51.6637 30.2469C51.7074 30.3877 51.8317 30.4876 51.9019 30.6173C52.0482 30.8875 51.9313 31.2293 51.7466 31.475C51.5619 31.7206 51.3137 31.9166 51.1515 32.1777C50.7483 32.827 50.9774 33.6663 51.2176 34.3917C51.2871 34.6658 51.4153 34.9215 51.5935 35.1412C51.9493 35.519 52.5292 35.5519 53.0486 35.5595C53.4266 35.565 53.8596 35.5463 54.0987 35.2539C54.4108 34.8721 54.1925 34.2764 54.398 33.8283C54.5846 33.4213 55.06 33.2467 55.4908 33.1229C56.28 32.896 57.0842 32.7031 57.8302 32.3605C58.7566 31.935 59.6224 31.2719 60.6407 31.2171C60.9263 31.2018 61.2191 31.2354 61.4942 31.1573C61.7694 31.0791 62.0308 30.8416 62.01 30.5567C61.9922 30.3132 61.7859 30.1345 61.6247 29.951C61.4636 29.7674 61.337 29.4853 61.4851 29.2911L64.1541 28.7933C63.9649 28.2785 63.8175 27.6004 64.2522 27.2653C64.4091 27.1444 64.6191 27.0961 64.7526 26.9499C64.9803 26.7008 64.8658 26.2716 64.6031 26.0597C64.3403 25.8479 63.985 25.7987 63.6485 25.7708C62.4782 25.6737 61.3012 25.7378 60.1287 25.802C57.8366 25.9275 55.5446 26.0529 53.2525 26.1784C52.7911 26.2036 52.2584 26.1651 51.8352 26.3222C51.477 26.4553 51.2222 26.6996 50.8125 26.7854C50.0561 26.9439 49.2237 26.8366 48.5392 27.2607Z" fill="#007FFF"/>
<path d="M61.1783 32.8291C61.1064 32.8178 61.0329 32.8344 60.973 32.8756C60.9333 32.9192 60.9097 32.975 60.9061 33.0338C60.8606 33.2931 60.9148 33.5601 61.058 33.7812C61.1309 33.8896 61.2316 33.9766 61.3496 34.0331C61.4676 34.0896 61.5986 34.1135 61.7289 34.1024C62.0466 34.0619 62.2807 33.7913 62.5728 33.6592C63.0229 33.4559 64.9345 33.1389 63.6122 32.4255C63.1565 32.1797 62.862 32.3967 62.5028 32.5586C62.0942 32.7673 61.6362 32.8609 61.1783 32.8291Z" fill="#007FFF"/>
<path d="M72.7605 26.858C72.6061 26.921 72.4769 27.0333 72.3932 27.1773C72.3546 27.2504 72.3456 27.3356 72.3681 27.4151C72.3906 27.4947 72.4429 27.5625 72.5142 27.6047C72.5718 27.6255 72.633 27.6352 72.6943 27.6332L73.3221 27.6519C73.5888 27.6599 73.922 27.7166 73.9937 27.9733C74.0469 28.1638 73.9278 28.4087 74.0715 28.5449C74.1332 28.5926 74.2073 28.6215 74.2851 28.6281C74.4919 28.6812 74.7079 28.6881 74.9177 28.6485C75.3745 28.5261 75.1345 28.2477 75.2783 27.9998C75.4985 27.6205 75.4604 27.8501 75.8482 27.6328C76.1347 27.4722 76.5049 27.181 76.2658 26.7718C75.85 26.0603 73.3741 26.5523 72.7605 26.858Z" fill="#007FFF"/>
<path d="M85.1524 26.5001L84.7878 26.5487C83.9657 26.6583 83.139 26.7688 82.3472 27.0153C82.6899 27.1507 83.0495 27.2388 83.4161 27.2773C83.6178 27.2871 83.8183 27.3156 84.0148 27.3622C84.3645 27.4662 84.7169 27.7347 85.0548 27.5971C85.2643 27.5119 85.3326 27.2941 85.5062 27.1786C85.626 27.0989 86.0805 26.9699 86.1313 26.8894C86.5421 26.239 85.4681 26.4581 85.1524 26.5001Z" fill="#007FFF"/>
<path d="M86.7532 28.1548C86.2662 28.4267 85.8144 28.7571 85.4079 29.1386C85.2366 29.2994 85.0616 29.4994 85.0771 29.7336C85.0978 30.0449 85.4299 30.2255 85.7176 30.3472L86.8831 30.8399C87.0245 30.6409 86.8951 30.3662 86.7489 30.1707C86.6028 29.9751 86.4292 29.7489 86.4937 29.5136C86.5674 29.245 86.8953 29.1535 87.1702 29.1073C87.6182 29.0319 88.8267 29.0379 88.6815 28.317C88.5104 27.4675 87.2029 27.9038 86.7532 28.1548Z" fill="#007FFF"/>
<path d="M86.5189 76.2272C86.408 76.5479 86.3975 76.9257 86.5894 77.2058C86.8047 77.52 87.2357 77.6371 87.6086 77.5575C87.9799 77.4588 88.3109 77.2463 88.5549 76.9499C88.778 76.7016 88.9616 76.4205 89.0992 76.1164C89.2912 75.6426 89.4266 75.1479 89.5026 74.6424L89.8645 72.7453C89.9453 72.3213 89.9422 71.0214 89.1618 71.4449C88.9486 71.5606 88.455 72.4741 88.2315 72.7332C87.8288 73.2 87.7756 73.653 87.5636 74.2187C87.298 74.9271 86.7644 75.5176 86.5189 76.2272Z" fill="#007FFF"/>
<path d="M127.738 85.9354C127.482 85.8359 127.235 85.7181 126.996 85.5829C126.757 86.2391 126.63 86.9306 126.62 87.6288L128.368 86.6414C128.631 86.4929 128.929 86.2865 128.923 85.985C128.925 85.9477 128.918 85.9105 128.901 85.8773C128.884 85.8441 128.858 85.816 128.826 85.7961C128.787 85.7806 128.745 85.7756 128.704 85.7818C128.445 85.8033 128.208 85.9307 127.964 86.0192C127.72 86.1077 127.434 86.1545 127.21 86.0231" fill="#007FFF"/>
<path d="M136.956 86.5216C136.764 86.5738 136.577 86.6409 136.395 86.7224C135.994 86.9262 135.722 87.3131 135.361 87.5815C135.015 87.8383 134.6 87.9793 134.192 88.1163C134.072 88.2223 134.127 88.4357 134.257 88.5288C134.397 88.6083 134.558 88.6444 134.719 88.6323C135.143 88.6417 135.589 88.6458 135.961 88.4413C136.17 88.3058 136.366 88.1506 136.545 87.9779C136.979 87.6162 137.501 87.3775 138.017 87.1468C138.205 87.076 138.378 86.9723 138.53 86.8406C138.854 86.5215 138.877 86.0293 138.409 85.9207C138.031 85.833 137.316 86.4054 136.956 86.5216Z" fill="#007FFF"/>
<path d="M141.029 83.865C141.05 83.6455 141.02 83.424 140.943 83.2174C140.866 83.0108 140.743 82.8244 140.583 82.6724C140.578 83.1116 140.565 83.5796 140.317 83.9428C140.141 84.2016 139.864 84.3764 139.671 84.6229C139.478 84.8695 139.392 85.2602 139.619 85.4765C139.764 85.5866 139.94 85.6472 140.122 85.6496C140.573 85.7026 141.095 85.7321 141.411 85.4068C141.584 85.2292 141.668 84.9663 141.878 84.8357C141.957 84.8028 142.027 84.7528 142.083 84.6893C142.17 84.5513 142.032 84.3694 141.877 84.3197C141.721 84.2699 141.55 84.2933 141.394 84.2461C141.237 84.1989 141.094 84.0234 141.174 83.8814" fill="#007FFF"/>
<path d="M133.79 67.7603C133.553 67.8178 133.308 67.8322 133.067 67.8029C132.665 67.7292 132.353 67.4271 132.029 67.1793C131.258 66.5935 130.322 66.2667 129.353 66.246C128.473 66.2293 127.584 66.4677 126.719 66.3014C126.775 66.6153 127.044 66.8507 127.331 66.9906C127.618 67.1305 127.935 67.2009 128.223 67.338C128.685 67.5597 129.051 67.9402 129.255 68.4098C129.348 68.6263 129.406 68.8618 129.547 69.0509C129.835 69.4372 130.38 69.522 130.861 69.4904C131.488 69.4492 132.143 69.2691 132.726 69.5025C133.173 69.6809 133.492 70.071 133.865 70.3744C134.237 70.6777 134.762 70.9028 135.19 70.6839C134.746 70.5402 134.359 70.2584 134.086 69.8797C133.813 69.5009 133.669 69.045 133.674 68.5785C134.094 68.617 135.303 68.6021 135.237 67.89C135.182 67.2864 134.15 67.6952 133.79 67.7603Z" fill="#007FFF"/>
<path d="M128.299 72.6706C128.374 72.2625 128.781 71.902 128.654 71.507C128.567 71.2339 128.249 71.099 127.962 71.0922C127.675 71.0855 127.393 71.1709 127.106 71.179C126.919 71.1691 126.731 71.1717 126.545 71.1869C125.974 71.2805 125.623 71.8772 125.086 72.0894C124.759 72.2184 124.392 72.1938 124.052 72.2829C123.281 72.4854 122.793 73.2132 122.254 73.7999C121.383 74.7438 120.248 75.4047 118.996 75.697C118.558 75.7984 118.086 75.8633 117.738 76.1477C117.276 76.5243 117.162 77.1699 117.06 77.7563C116.776 79.3755 116.342 80.965 115.764 82.5043L117.596 82.7378C117.944 82.7822 118.305 82.8256 118.64 82.7226C118.884 82.6308 119.115 82.508 119.327 82.3572C120.143 81.8516 121.056 81.5225 122.007 81.3914C122.486 81.3256 122.989 81.3136 123.439 81.4916C123.889 81.6696 124.276 82.0733 124.313 82.5552C124.508 82.4947 124.715 82.4882 124.913 82.5363C125.111 82.5844 125.293 82.6853 125.438 82.8283C125.725 83.1201 125.912 83.4944 125.975 83.8985C126.023 84.1487 126.071 84.4484 126.304 84.5534C126.493 84.639 126.711 84.5468 126.918 84.5302C127.622 84.474 128.207 85.2938 128.899 85.1526C129.641 85.0012 129.823 83.8912 130.547 83.6689C130.963 83.5412 131.547 83.6965 131.746 83.3102C131.921 82.9697 131.571 82.5768 131.607 82.1956C131.652 81.7261 132.206 81.5269 132.634 81.3266C134.107 80.636 134.807 78.6553 134.093 77.1945C133.67 76.3289 132.837 75.6476 132.683 74.6967C132.565 73.9651 132.854 73.112 132.387 72.5362C132.149 72.2433 131.747 72.0816 131.605 71.732C131.516 71.512 131.552 71.2624 131.504 71.0299C131.456 70.7975 131.253 70.5544 131.023 70.6147C130.356 70.7895 130.143 72.8476 129.786 73.3477C129.243 74.1078 128.128 73.6071 128.299 72.6706Z" fill="#007FFF"/>
<path d="M115.967 68.5379C115.739 68.4741 115.49 68.4112 115.272 68.5024C115.053 68.5936 114.925 68.9139 115.101 69.0729C116.473 69.0195 117.853 68.9665 119.213 69.1525C120.78 69.3668 122.33 69.8977 123.904 69.7415C123.005 69.4767 122.091 69.2649 121.167 69.1074L119.627 68.8135C119.213 68.727 118.796 68.6626 118.375 68.6204C117.496 68.5479 116.831 68.7799 115.967 68.5379Z" fill="#007FFF"/>
<path d="M117.34 63.7674C117.226 63.7579 117.085 63.7497 117.026 63.8475C116.97 63.9409 117.034 64.0643 117.004 64.1691C116.963 64.3122 116.775 64.3487 116.627 64.3293C116.479 64.3098 116.32 64.2631 116.189 64.3343C116.122 64.3796 116.072 64.4452 116.046 64.5213C116.02 64.5974 116.02 64.6798 116.045 64.7562C116.098 64.9078 116.185 65.0457 116.298 65.1599C116.492 65.4037 116.713 65.6248 116.956 65.819C117.428 66.1665 118.067 66.334 118.363 66.8384C118.405 66.9362 118.47 67.0227 118.551 67.091C118.694 67.1811 118.88 67.1125 119.033 67.0425L119.571 66.797C119.668 66.7622 119.755 66.7034 119.823 66.6262C119.946 66.4597 119.87 66.2229 119.767 66.0435C119.664 65.8642 119.532 65.6785 119.554 65.4728C119.593 65.1061 120.066 64.9658 120.26 64.652C120.456 64.3358 120.328 63.9283 120.351 63.5571C120.377 63.1231 120.65 62.5586 120.211 62.2343C119.837 61.9587 119.48 62.2134 119.212 62.5176C118.647 63.1592 118.38 63.8541 117.34 63.7674Z" fill="#007FFF"/>
<path d="M120.606 57.2827C120.789 57.6338 121.172 57.8434 121.373 58.1854C121.59 58.5561 121.565 59.035 121.8 59.3943C122.042 59.7629 122.528 59.9586 122.664 60.3779C122.812 60.8356 122.476 61.392 122.744 61.7919C122.794 61.8573 122.856 61.9116 122.928 61.9514C123.001 61.9913 123.08 62.0157 123.162 62.0232C123.244 62.0307 123.327 62.0212 123.405 61.9951C123.483 61.9691 123.555 61.9271 123.616 61.8719C123.728 61.7493 123.789 61.5875 123.784 61.421C123.779 61.2546 123.709 61.0966 123.589 60.9808C123.431 60.8366 123.203 60.7743 123.071 60.6058C123.002 60.5086 122.956 60.397 122.937 60.2795C122.865 59.9406 122.876 59.5892 122.97 59.2557C123.006 59.1711 123.015 59.0777 122.996 58.9879C122.937 58.8151 122.702 58.8028 122.538 58.7226C122.164 58.5405 122.173 58.014 122.239 57.604C122.195 57.877 121.221 57.4127 121.119 57.2581C120.917 56.951 121.027 56.3585 120.987 56.019C120.55 56.2295 120.381 56.8533 120.606 57.2827Z" fill="#007FFF"/>
<path d="M110.796 62.6857C110.617 62.4848 110.346 62.2746 110.105 62.3958C109.921 62.4882 109.871 62.7422 109.943 62.9347C110.03 63.1217 110.166 63.2826 110.335 63.4014C110.837 63.8149 111.377 64.1882 111.816 64.6688C112.599 65.5291 113.015 66.6898 113.867 67.4823C114.039 67.666 114.266 67.7886 114.513 67.8314C114.762 67.8545 115.041 67.6957 115.069 67.4483C115.093 67.2444 114.95 67.062 114.811 66.9109C114.48 66.5512 114.118 66.2201 113.805 65.8443C113.66 65.6999 113.57 65.5107 113.548 65.3078C113.546 65.1054 113.731 64.8936 113.927 64.9437C113.688 64.8828 113.511 64.4855 113.161 64.4108C112.868 64.3484 112.797 64.5295 112.448 64.3802C111.784 64.0954 111.262 63.2062 110.796 62.6857Z" fill="#007FFF"/>
<path d="M126.419 43.1241C126.228 43.0675 126.041 43.0006 125.857 42.9238C125.363 42.7758 124.71 43.1381 124.776 43.6486C124.82 43.9877 125.136 44.2164 125.31 44.5106C125.569 44.9469 125.5 45.5002 125.364 45.9888C125.331 46.14 125.267 46.2831 125.178 46.4094C125.052 46.5427 124.902 46.6506 124.735 46.7271C124.069 47.1004 123.481 47.5991 123.004 48.1957C122.952 48.2508 122.916 48.3188 122.899 48.3925C122.876 48.5649 123.049 48.6904 123.147 48.8342C123.365 49.1535 123.208 49.5832 123.229 49.969C123.226 50.0235 123.237 50.078 123.26 50.1273C123.284 50.1765 123.32 50.2189 123.365 50.2504C123.496 50.3171 123.652 50.2039 123.723 50.0751C123.959 49.6478 123.781 48.9619 124.224 48.7558C124.308 48.7168 124.41 48.7004 124.466 48.6269C124.554 48.5102 124.469 48.3375 124.514 48.1981C124.581 47.9888 124.868 47.9794 125.088 47.9887C125.467 48.0045 125.846 47.9541 126.208 47.8398C126.349 47.8061 126.478 47.7316 126.578 47.6255C126.711 47.4604 126.699 47.2257 126.672 47.0158C126.54 45.9695 126.208 44.9581 125.695 44.0364C126.084 44.086 126.507 44.129 126.843 43.9265C127.031 43.813 127.257 43.4738 127.164 43.2429C127.016 42.8778 126.75 43.1852 126.419 43.1241Z" fill="#007FFF"/>
<path d="M76.5156 48.8789C76.5622 49.1283 76.608 49.391 76.5261 49.6313C76.4443 49.8715 76.1867 50.0723 75.9435 49.9987C75.7547 49.9415 75.6457 49.752 75.5116 49.6075C74.7663 48.804 73.0845 49.2692 72.6241 48.2751C72.4361 47.8694 72.5638 47.3833 72.4357 46.955C72.3548 46.7075 72.1939 46.4938 71.9782 46.3475C71.7625 46.2012 71.5043 46.1305 71.244 46.1467C71.0067 46.1809 70.7756 46.2498 70.5583 46.3511C69.1025 46.9333 67.574 47.315 66.0151 47.4857C65.7188 47.5038 65.4258 47.557 65.1421 47.6444C64.502 47.8761 64.0647 48.4687 63.7534 49.0734C63.4421 49.6781 63.2124 50.3327 62.7951 50.8699C62.3565 51.4345 61.7419 51.8299 61.1687 52.2576C60.9478 52.3997 60.7639 52.5921 60.6321 52.8191C60.5079 53.0739 60.5149 53.3702 60.5245 53.6534L60.6417 57.0935C60.6567 57.5359 60.6757 57.9942 60.874 58.3902C61.1216 58.8846 61.6109 59.2085 61.9503 59.6453C62.2966 60.0942 62.477 60.6487 62.461 61.2152C62.4538 61.4429 62.4311 61.7123 62.6087 61.8553C62.7168 61.9252 62.8432 61.9615 62.972 61.9596L67.632 62.3405C68.4518 62.4074 69.3602 62.5176 69.8954 63.1412C70.148 63.4356 70.3509 63.8588 70.7378 63.8904C70.9037 63.9039 71.0652 63.8359 71.2312 63.8228C71.65 63.7897 72.0178 64.107 72.25 64.4566C72.6014 64.9894 72.7609 65.6257 72.7023 66.261C72.6643 66.6598 72.5404 67.0475 72.5137 67.4472C72.4122 68.968 73.7033 70.2894 73.7283 71.8134C73.7431 72.7098 73.3169 73.5474 72.9014 74.3422C73.572 75.3566 73.0229 76.7074 73.2898 77.8934C73.5431 79.0185 74.4826 79.8993 74.7167 81.0285C74.8238 81.5455 74.83 82.1816 75.2866 82.4479C75.4869 82.5454 75.709 82.5898 75.9314 82.5768C77.2733 82.5927 78.5999 82.2911 79.8027 81.6968C80.3672 81.4171 80.9522 80.9995 81.0508 80.378C81.1303 79.8767 80.8757 79.3161 81.1348 78.8795C81.4401 78.365 82.2222 78.4058 82.6714 78.0101C83.4002 77.3683 82.8319 76.1443 83.1272 75.2199C83.3926 74.389 84.3063 73.9475 84.7591 73.2017C84.9374 72.881 85.0653 72.5349 85.1384 72.1754C85.3459 71.3163 85.475 70.4402 85.5242 69.5578C85.5363 69.0217 85.5759 68.4865 85.6428 67.9545C86.1311 64.9253 89.1301 62.8969 90.1038 59.9869C90.1968 59.709 90.2404 59.3388 89.9929 59.1815C89.846 59.1116 89.6795 59.0942 89.5213 59.1323L87.3731 59.4027C87.1063 59.4363 86.8235 59.4677 86.5785 59.357C86.3334 59.2464 86.1578 58.9368 86.2878 58.7017C86.6526 58.0418 85.9021 57.2079 85.5687 56.5315C84.6707 54.7105 83.6014 52.9788 82.3751 51.3599C82.2966 51.2766 82.2475 51.17 82.2351 51.0563L82.8448 51.0766C82.639 50.3391 82.2993 49.5322 81.5819 49.2624C81.1776 49.1104 80.7299 49.163 80.2985 49.1865C79.063 49.2539 77.7385 49.0677 76.5156 48.8789Z" fill="#007FFF"/>
<path d="M80.2997 32.261C80.623 32.6039 80.9853 32.9673 81.4531 33.0271C82.2793 33.1326 82.8733 32.2795 83.2516 31.5384C83.2656 31.7274 83.3528 31.9034 83.4948 32.029C83.6367 32.1547 83.8222 32.2201 84.0117 32.2114C84.2156 32.1771 84.4103 32.1011 84.5834 31.9882C86.2204 31.0949 88.054 30.6216 89.9195 30.6108C89.9016 30.4696 89.9366 30.3269 90.0179 30.2101C90.0991 30.0933 90.2209 30.0107 90.3595 29.9782C90.7388 29.9031 91.0805 30.2305 91.2635 30.5707C91.4464 30.9108 91.5605 31.3051 91.8512 31.5597C92.1419 31.8143 92.7047 31.8032 92.8195 31.4345C92.9297 31.0805 92.5604 30.7787 92.2536 30.57C91.9468 30.3613 91.6235 29.9751 91.8301 29.6671C93.3975 29.3207 94.9746 28.9729 96.5784 28.904C96.8515 28.9135 97.1236 28.8667 97.3777 28.7665C97.6223 28.6467 97.8167 28.3746 97.751 28.1106C97.401 28.1928 97.0344 28.169 96.698 28.0423C96.3616 27.9156 96.0706 27.6917 95.8621 27.3992C98.0876 27.2158 100.455 27.0595 102.427 28.1051C102.664 28.6125 101.457 29.0346 101.78 29.4922C101.883 29.6381 102.089 29.6552 102.268 29.6586C103.638 29.684 105.017 29.7089 106.372 29.5023C106.867 29.4268 107.367 29.3202 107.865 29.3814C108.693 29.4834 109.401 30.0351 110.216 30.215C110.547 30.2882 110.919 30.2907 111.199 30.0981C111.478 29.9055 111.598 29.467 111.369 29.2166C112.136 28.4659 113.409 28.652 114.421 29.0114C115.433 29.3708 116.392 29.9504 117.463 30.0305C118.231 30.088 119.01 29.8817 119.769 30.0128C120.246 30.0952 120.69 30.3071 121.156 30.4372C122.037 30.6834 122.97 30.6314 123.885 30.6433C126.221 30.6747 128.53 31.133 130.701 31.9956C130.983 32.0873 131.241 32.2399 131.458 32.4426C131.66 32.6585 131.763 32.994 131.627 33.2565L129.385 32.9293C129.596 33.3446 130.143 33.4154 130.587 33.5587C131.031 33.702 131.491 34.1914 131.224 34.5736C130.743 34.4207 130.307 34.9008 130.064 35.3426C129.821 35.7844 129.525 36.3135 129.021 36.3404C128.57 36.3645 128.024 35.9807 127.73 36.3233C128.136 36.8353 128.484 37.3909 128.768 37.9799C129.058 38.5845 129.265 39.3464 128.872 39.8904C128.811 39.9875 128.717 40.0601 128.607 40.0957C128.286 40.1768 128.078 39.7848 127.848 39.5473C127.558 39.248 127.12 39.1632 126.727 39.0228C126.334 38.8824 125.921 38.6062 125.89 38.191C125.871 37.9326 126.008 37.6924 126.108 37.4536C126.277 37.051 126.351 36.615 126.324 36.1793C126.302 35.8288 126.204 35.4641 125.952 35.2192C125.7 34.9743 125.264 34.8966 124.994 35.1209C124.867 35.2256 124.766 35.393 124.602 35.3993C124.313 35.4104 124.09 34.9059 123.857 35.0781C123.884 35.2616 123.846 35.4488 123.749 35.6071C123.054 36.2112 121.985 35.9557 121.088 36.1691C120.662 36.2909 120.253 36.469 119.874 36.6985C119.732 36.7591 119.611 36.8603 119.527 36.9894C119.415 37.2066 119.538 37.4849 119.736 37.6293C119.945 37.7575 120.18 37.8376 120.424 37.864C121.518 38.0707 122.627 38.3908 123.49 39.0921C124.353 39.7933 124.919 40.9525 124.646 42.0297L122.49 39.9724C122.572 40.8362 122.618 41.7024 122.629 42.571C122.643 42.7406 122.62 42.9112 122.561 43.0708C122.407 43.4098 121.991 43.5239 121.626 43.5987C121.524 43.618 121.428 43.6585 121.343 43.7176C121.258 43.7766 121.187 43.8529 121.134 43.9415C121.081 44.03 121.047 44.1288 121.035 44.2313C121.023 44.3337 121.032 44.4376 121.063 44.5361C121.193 44.9583 121.516 45.2874 121.813 45.6154C122.109 45.9434 122.4 46.3161 122.439 46.756C122.478 47.1959 122.145 47.6917 121.704 47.6611C121.37 47.6379 121.122 47.339 120.979 47.036C120.836 46.7331 120.751 46.3956 120.537 46.1382C119.888 45.3591 118.431 45.6929 117.85 44.8624C117.702 45.0302 117.599 45.233 117.552 45.4516C117.504 45.6702 117.513 45.8972 117.578 46.1113C117.849 45.9423 118.219 46.0993 118.422 46.3449C118.625 46.5905 118.721 46.9053 118.88 47.1811C119.096 47.5533 119.438 47.8833 119.468 48.312C119.46 48.4741 119.463 48.6366 119.476 48.7984C119.53 49.0582 119.75 49.2447 119.902 49.4618C120.257 49.9671 120.239 50.6612 120.011 51.2345C119.782 51.8078 119.371 52.2868 118.964 52.7512C118.254 53.5624 117.528 54.3688 116.686 55.0425C116.446 55.2347 116.189 55.4237 116.039 55.6925C115.889 55.9612 115.882 56.3384 116.112 56.5428C115.947 56.5511 115.652 56.6319 115.487 56.6402C115.429 55.9807 115.417 55.318 115.45 54.6568C114.8 54.3452 114.1 55.1795 114.184 55.8943C114.268 56.6091 114.786 57.1827 115.154 57.8012C115.424 58.2534 115.624 58.7807 115.534 59.2993C115.444 59.8178 114.981 60.2962 114.456 60.2505C113.621 60.1777 113.271 58.9805 112.444 58.8435C112.371 58.8264 112.295 58.834 112.227 58.8651C112.104 58.9323 112.083 59.0964 112.076 59.236C112.042 59.9215 112.012 60.6343 112.28 61.2663C112.672 62.1909 113.685 62.9674 113.473 63.9488C112.328 63.4176 111.733 62.136 111.463 60.9049C111.193 59.6739 111.148 58.3815 110.664 57.2178C110.296 57.6884 109.523 57.2994 109.187 56.8056C108.868 56.3375 108.672 55.796 108.363 55.3216C108.054 54.8471 107.581 54.4223 107.015 54.3962C106.421 54.3689 105.906 54.7757 105.453 55.16C105.081 55.476 104.699 55.8045 104.481 56.2414C104.165 56.8771 104.247 57.6266 104.232 58.3365C104.216 59.1039 104.053 59.9136 103.529 60.4754C103.005 61.0373 102.038 61.2329 101.461 60.7266C101.159 60.4623 101.013 60.0673 100.883 59.6882C100.256 57.8607 99.7335 55.9991 99.3186 54.1123C99.2215 54.5429 98.8428 55.098 98.481 54.8443C98.3999 54.7761 98.3341 54.6915 98.2881 54.5961C97.6133 53.454 96.3635 52.7689 95.1009 52.3582C93.8382 51.9474 92.5097 51.7558 91.261 51.3044C90.5613 51.0513 89.8929 50.7189 89.2691 50.3136C89.1101 50.5469 89.0173 50.8188 89.0004 51.1006C88.9835 51.3823 89.0433 51.6633 89.1734 51.9138C89.4504 52.4035 90.0772 52.6869 90.6137 52.5157C90.891 52.4273 91.1251 52.2351 91.4002 52.1401C91.6753 52.0452 92.0446 52.0918 92.1649 52.3565C92.28 52.6098 92.106 52.9163 92.1923 53.1808C92.3238 53.5837 92.9323 53.6147 93.1451 53.9813C93.3034 54.2541 93.1731 54.6163 92.9471 54.8364C92.721 55.0565 92.4195 55.1772 92.1435 55.3304C91.2482 55.8275 90.6116 56.6762 89.8291 57.3364C89.0467 57.9967 87.9428 58.4787 87.0103 58.0552C87.2326 56.9313 85.8919 56.1062 85.6452 54.9874C85.564 54.6191 85.6061 54.228 85.4902 53.8691C85.3224 53.3495 84.8608 52.9923 84.4821 52.5985C84.0227 52.1158 83.6649 51.546 83.4296 50.9229C83.1944 50.2998 83.0865 49.636 83.1124 48.9706C83.1328 48.5082 83.2179 48.0383 83.1124 47.5876C83.0069 47.1369 82.6332 46.7007 82.1702 46.7211C81.1126 46.7677 79.7802 46.8463 79.2253 45.946C79.0273 45.6247 78.9411 45.1541 79.2274 44.908C79.4294 44.7343 79.7275 44.7507 79.9928 44.7767L82.3758 45.0108C82.9331 45.0655 83.5356 45.1107 84.0139 44.8198C84.4921 44.5288 84.6994 43.7565 84.2565 43.4142C83.9329 43.1641 83.3532 43.1777 83.2591 42.78C83.1808 42.4488 83.5479 42.073 83.3496 41.7963C83.2075 41.5978 82.8878 41.6529 82.6942 41.8016C82.5005 41.9504 82.3599 42.168 82.1432 42.2806C81.7629 42.4782 81.3086 42.2902 80.8995 42.1623C80.4904 42.0345 79.942 42.0237 79.7435 42.4031C79.5216 42.8274 79.9404 43.3834 79.7201 43.8086C79.4289 44.3708 78.4429 44.0508 78.0339 44.5343C77.5647 45.0892 78.3532 45.9166 78.195 46.6254C77.993 46.7253 77.7684 46.7712 77.5433 46.7586C77.3182 46.7459 77.1002 46.6752 76.9107 46.5534C76.7242 46.4267 76.5757 46.252 76.4807 46.0478C76.3858 45.8436 76.3481 45.6175 76.3716 45.3935C76.4108 45.0747 76.5773 44.7492 76.4657 44.4478C76.3755 44.2042 76.1305 44.0591 75.9029 43.9335L73.5872 42.6557C73.3722 43.054 73.644 43.5477 73.9839 43.8468C74.3238 44.146 74.7496 44.3713 74.9729 44.7649C75.1142 45.0377 75.1458 45.354 75.0614 45.6492C74.977 45.9445 74.783 46.1965 74.5188 46.3537C74.4857 46.3765 74.448 46.3919 74.4084 46.3988C74.3688 46.4057 74.3281 46.4039 74.2893 46.3937C74.2523 46.372 74.2201 46.3431 74.1945 46.3088C74.169 46.2745 74.1505 46.2353 74.1404 46.1938C73.7318 45.1497 73.1184 44.1203 72.1376 43.5749C71.1568 43.0294 69.7476 43.1416 69.1045 44.0604C68.9517 44.2786 68.8492 44.5273 68.7161 44.7581C68.0091 45.9838 66.4934 46.5643 65.0773 46.5264C64.9388 46.534 64.801 46.5017 64.6804 46.4332C64.4515 46.2754 64.4618 45.9405 64.4969 45.665L64.6455 44.4957C64.6754 44.2609 64.7186 44.0014 64.9047 43.8548C65.167 43.6482 65.5455 43.7786 65.8796 43.7738C66.1327 43.7619 66.376 43.6727 66.5766 43.5181C66.7772 43.3635 66.9254 43.1511 67.001 42.9096C67.0685 42.6657 67.068 42.4081 66.9997 42.1644C66.9314 41.9208 66.7978 41.7004 66.6133 41.5269C66.4602 41.3833 66.2547 41.2029 66.3356 41.0093C66.3678 40.9558 66.4115 40.9099 66.4634 40.875C66.5153 40.8401 66.5742 40.817 66.6361 40.8073C67.2362 40.6332 67.8703 40.5876 68.4604 40.3823C69.0505 40.177 69.6227 39.7569 69.7625 39.1487C69.8053 38.9623 69.8248 38.7365 69.9925 38.6441C70.0766 38.6087 70.1669 38.5902 70.2583 38.5899C70.5782 38.5445 70.8695 38.3811 71.0748 38.1319C71.2801 37.8827 71.3846 37.5658 71.3676 37.2436C71.6504 37.0463 72.0466 37.1914 72.3202 37.4013C72.5938 37.6112 72.8354 37.8885 73.1683 37.9789C73.7887 38.1475 74.3882 37.599 75.0312 37.5965C75.3015 37.5954 75.5814 37.6909 75.8358 37.5994C76.0937 37.5066 76.2477 37.2502 76.4456 37.0609C76.6435 36.8715 76.9907 36.756 77.1735 36.96L77.0179 35.809C77.3313 35.888 77.658 35.8992 77.9761 35.8418C78.2942 35.7844 78.5963 35.6596 78.8621 35.476L76.8509 34.7974C76.7808 34.78 76.7162 34.7455 76.6628 34.697C76.5166 34.5398 76.6618 34.2948 76.7807 34.116C77.0651 33.6885 77.1129 32.9842 76.6451 32.7713C76.3258 32.626 75.9594 32.8004 75.6529 32.9711L74.1849 33.7884C74.1383 34.067 74.4795 34.2249 74.691 34.4126C74.8189 34.5262 74.9094 34.6757 74.9507 34.8416C74.992 35.0075 74.982 35.1819 74.9222 35.3421C74.8623 35.5022 74.7554 35.6405 74.6154 35.7388C74.4753 35.8371 74.3088 35.8909 74.1377 35.893C74.2343 36.0185 74.3015 36.1641 74.3342 36.319C74.3669 36.4739 74.3642 36.6342 74.3265 36.788L73.3388 36.8589C73.2279 36.8812 73.1128 36.8587 73.0184 36.7965C72.9128 36.7028 72.9271 36.5386 72.9026 36.3997C72.8436 36.0643 72.5147 35.8293 72.1791 35.769C71.8435 35.7087 71.5001 35.786 71.1678 35.8623C71.0267 35.913 70.8717 35.9094 70.7331 35.8522C70.6536 35.8007 70.5932 35.7245 70.5611 35.6355C70.4154 35.2827 70.5516 34.8681 70.7856 34.5664C71.0196 34.2647 71.3399 34.0442 71.6276 33.793C72.3156 33.1903 72.8211 32.4074 73.087 31.5328C73.6307 31.3053 74.1936 30.9962 74.7374 30.7687C75.5756 30.3449 76.5157 30.1631 77.4518 30.2436L79.2932 30.2787C79.8383 30.2891 80.3982 30.3024 80.9024 30.51C81.4065 30.7175 81.8494 31.1664 81.8842 31.7097C81.8947 31.7713 81.8894 31.8344 81.8687 31.8933C81.8481 31.9522 81.8128 32.0049 81.7661 32.0464C81.695 32.0852 81.6143 32.1034 81.5333 32.0988C81.0249 32.1167 80.8081 32.2432 80.2997 32.261Z" fill="#007FFF"/>
<path d="M65.6228 38.0235C65.6947 37.9555 65.7465 37.869 65.7724 37.7736C65.7983 37.6781 65.7974 37.5774 65.7697 37.4824C65.5947 37.4149 65.4042 37.3976 65.2198 37.4324C65.0355 37.4672 64.8645 37.5526 64.7261 37.6792C64.617 37.7894 64.523 37.9135 64.4465 38.0483C64.2046 38.4425 63.9905 38.9133 64.1308 39.3539C64.1422 39.402 64.1631 39.4473 64.1923 39.4871C64.2215 39.527 64.2584 39.5607 64.3008 39.5861C64.3636 39.6113 64.4314 39.6219 64.4989 39.6171C64.7655 39.6168 65.0318 39.6004 65.2963 39.5681C65.4588 39.5483 65.6475 39.5024 65.7103 39.3515C65.7929 39.1531 65.5931 38.9285 65.6513 38.7217C65.6897 38.6292 65.7477 38.5461 65.8215 38.4783C65.8581 38.4442 65.8862 38.402 65.9036 38.3552C65.921 38.3083 65.9273 38.258 65.9218 38.2083C65.8983 38.1112 65.7495 38.0562 65.6959 38.1405" fill="#007FFF"/>
<path d="M67.0051 36.2341C66.7683 36.1798 66.5242 36.1645 66.2824 36.1888C66.229 36.1872 66.176 36.1992 66.1285 36.2237C66.0824 36.2577 66.049 36.3059 66.0336 36.3609C65.9825 36.5246 65.9951 36.7014 66.0687 36.8562C66.1424 37.011 66.2717 37.1325 66.431 37.1963C66.5178 37.2162 66.601 37.2496 66.6775 37.2952C66.8819 37.4535 66.7516 37.7772 66.7903 38.0326C66.8337 38.3194 67.1117 38.5601 67.0607 38.8457C67.0206 39.0706 66.78 39.2488 66.8187 39.474C66.8593 39.7099 67.159 39.7807 67.398 39.7996C67.5364 39.8238 67.679 39.8075 67.8084 39.7527C67.9381 39.6641 68.0303 39.5307 68.0673 39.3782C68.1651 39.0875 68.2062 38.7807 68.1884 38.4745C68.1873 38.3352 68.1523 38.1983 68.0863 38.0756C68.0144 37.9784 67.9346 37.8872 67.8479 37.803C67.3901 37.2712 67.8721 36.4781 67.0051 36.2341Z" fill="#007FFF"/>
<path opacity="0.8" d="M127.202 77.8873C127.202 77.8873 92.1407 57.7905 77.0463 61.5983C77.0463 61.5983 45.0568 65.0359 41.3494 72.5986C41.3494 72.5986 31.1805 40.8669 27.4731 39.8092" stroke="#1CBF36" stroke-width="2" stroke-miterlimit="10"/>
<path opacity="0.8" d="M41.3494 72.5986C47.2283 56.9443 100.191 39.5977 100.191 39.5977C92.6703 41.5016 77.0463 61.5983 77.0463 61.5983C77.0463 61.5983 43.9975 37.588 27.4731 39.8092C27.4731 39.8092 100.244 42.1891 127.202 77.8872" stroke="#1CBF36" stroke-width="2" stroke-miterlimit="10"/>
<path d="M27.4732 41.3429C28.3214 41.3429 29.0091 40.6563 29.0091 39.8092C29.0091 38.9622 28.3214 38.2755 27.4732 38.2755C26.6249 38.2755 25.9373 38.9622 25.9373 39.8092C25.9373 40.6563 26.6249 41.3429 27.4732 41.3429Z" fill="#1CBF36"/>
<path d="M41.3494 74.1323C42.1977 74.1323 42.8853 73.4457 42.8853 72.5986C42.8853 71.7516 42.1977 71.0649 41.3494 71.0649C40.5011 71.0649 39.8135 71.7516 39.8135 72.5986C39.8135 73.4457 40.5011 74.1323 41.3494 74.1323Z" fill="#1CBF36"/>
<path d="M100.191 41.1314C101.039 41.1314 101.727 40.4447 101.727 39.5977C101.727 38.7506 101.039 38.064 100.191 38.064C99.3427 38.064 98.655 38.7506 98.655 39.5977C98.655 40.4447 99.3427 41.1314 100.191 41.1314Z" fill="#1CBF36"/>
<path d="M127.202 79.421C128.05 79.421 128.738 78.7344 128.738 77.8873C128.738 77.0403 128.05 76.3536 127.202 76.3536C126.354 76.3536 125.666 77.0403 125.666 77.8873C125.666 78.7344 126.354 79.421 127.202 79.421Z" fill="#1CBF36"/>
<path d="M77.0464 63.1321C77.8947 63.1321 78.5823 62.4454 78.5823 61.5984C78.5823 60.7514 77.8947 60.0647 77.0464 60.0647C76.1982 60.0647 75.5105 60.7514 75.5105 61.5984C75.5105 62.4454 76.1982 63.1321 77.0464 63.1321Z" fill="#1CBF36"/>
</g>
<defs>
<clipPath id="clip0_2808_1274">
<rect width="151" height="112" fill="white"/>
</clipPath>
</defs>
</svg>
