<svg width="126" height="90" viewBox="0 0 126 90" fill="none" xmlns="http://www.w3.org/2000/svg">
<g clip-path="url(#clip0_3195_697)">
<path opacity="0.1" d="M62.8448 89.9999C97.5531 89.9999 125.69 88.229 125.69 86.0445C125.69 83.86 97.5531 82.0891 62.8448 82.0891C28.1366 82.0891 0 83.86 0 86.0445C0 88.229 28.1366 89.9999 62.8448 89.9999Z" fill="#007FFF"/>
<path d="M115.832 83.1152C115.833 83.4278 115.801 83.7395 115.736 84.0453C115.724 84.1029 115.711 84.1652 115.698 84.2143C115.358 85.5795 114.399 86.578 113.255 86.6415C113.216 86.6415 113.178 86.6415 113.135 86.6415C111.925 86.6415 110.901 85.5963 110.564 84.1568C110.554 84.1184 110.546 84.0801 110.537 84.0369C110.473 83.7311 110.441 83.4194 110.442 83.1068C110.442 81.1567 111.647 79.5769 113.135 79.5769C114.623 79.5769 115.832 81.1675 115.832 83.1152Z" fill="#3F3D56"/>
<path opacity="0.1" d="M115.832 83.1152C115.833 83.4277 115.801 83.7395 115.736 84.0453C115.724 84.1028 115.711 84.1652 115.698 84.2143C115.657 84.2143 115.618 84.2143 115.578 84.2143C115.282 84.1983 114.987 84.1582 114.697 84.0944C114.44 84.174 114.178 84.2341 113.912 84.2742C113.708 84.305 113.503 84.3242 113.297 84.3318H113.088C112.842 84.3318 112.595 84.3154 112.351 84.2826C111.956 84.2298 111.568 84.1333 111.194 83.995C110.989 84.0632 110.78 84.1193 110.569 84.1628C110.559 84.1244 110.551 84.0861 110.542 84.0429C110.478 83.7371 110.446 83.4253 110.447 83.1128C110.447 81.1626 111.652 79.5829 113.14 79.5829C114.628 79.5829 115.832 81.1674 115.832 83.1152Z" fill="black"/>
<path d="M121.578 76.5407C121.579 75.683 121.378 74.8371 120.991 74.0716L117.824 75.0581L120.605 73.4208C120.138 72.746 119.527 72.1846 118.815 71.7782C118.103 71.3718 117.309 71.1307 116.492 71.0727C116.361 70.8753 116.218 70.6863 116.064 70.5069L111.515 71.9249L115.247 69.729C114.533 69.1808 113.695 68.8172 112.808 68.6702C111.92 68.5232 111.01 68.5974 110.158 68.8863C109.306 69.1752 108.538 69.6698 107.923 70.3265C107.307 70.9831 106.862 71.7816 106.628 72.6513L110.524 77.1436L106.297 74.0812C105.226 74.8412 104.462 75.9616 104.147 77.2381C103.831 78.5146 103.985 79.8621 104.579 81.035C105.173 82.2078 106.168 83.1277 107.383 83.6271C108.598 84.1264 109.951 84.1719 111.197 83.7552C112.324 84.1687 113.554 84.2024 114.702 83.8511C115.502 84.0283 116.332 84.0234 117.129 83.8369C117.927 83.6504 118.673 83.2869 119.312 82.7733C119.951 82.2597 120.467 81.6091 120.821 80.8694C121.176 80.1296 121.36 79.3197 121.36 78.4993C121.36 78.3794 121.36 78.2595 121.348 78.1397C121.503 77.621 121.581 77.0822 121.578 76.5407Z" fill="#007FFF"/>
<path opacity="0.1" d="M121.483 77.5584C119.811 77.2403 118.095 77.2184 116.415 77.4936C114.513 77.8089 112.569 78.5017 110.709 77.9947C109.617 77.6974 108.674 77.0094 107.607 76.6282C106.578 76.2678 105.47 76.201 104.405 76.4353C103.999 77.407 103.881 78.4753 104.065 79.5124C104.25 80.5495 104.728 81.5115 105.444 82.2835C106.16 83.0555 107.082 83.6048 108.101 83.8658C109.12 84.1268 110.193 84.0884 111.191 83.7552C112.318 84.1687 113.549 84.2024 114.696 83.8511C115.496 84.0283 116.326 84.0234 117.124 83.8369C117.921 83.6504 118.667 83.2869 119.306 82.7733C119.945 82.2597 120.461 81.6091 120.815 80.8694C121.17 80.1296 121.354 79.3197 121.354 78.4993C121.354 78.3794 121.354 78.2595 121.342 78.1397C121.4 77.9487 121.447 77.7546 121.483 77.5584Z" fill="black"/>
<path d="M83.6256 20.6125H82.9396C82.7883 20.6125 82.6655 20.7354 82.6655 20.887V30.5286C82.6655 30.6802 82.7883 30.8031 82.9396 30.8031H83.6256C83.7769 30.8031 83.8997 30.6802 83.8997 30.5286V20.887C83.8997 20.7354 83.7769 20.6125 83.6256 20.6125Z" fill="#3F3D56"/>
<path d="M42.1419 12.6285H41.808C41.7088 12.6285 41.6284 12.709 41.6284 12.8083V15.8037C41.6284 15.903 41.7088 15.9834 41.808 15.9834H42.1419C42.2411 15.9834 42.3215 15.903 42.3215 15.8037V12.8083C42.3215 12.709 42.2411 12.6285 42.1419 12.6285Z" fill="#3F3D56"/>
<path d="M42.1814 18.7714H41.8056C41.6938 18.7714 41.6033 18.8621 41.6033 18.9739V24.4084C41.6033 24.5203 41.6938 24.611 41.8056 24.611H42.1814C42.2932 24.611 42.3837 24.5203 42.3837 24.4084V18.9739C42.3837 18.8621 42.2932 18.7714 42.1814 18.7714Z" fill="#3F3D56"/>
<path d="M42.1659 26.6534H41.808C41.7015 26.6534 41.6152 26.7398 41.6152 26.8464V32.3504C41.6152 32.457 41.7015 32.5434 41.808 32.5434H42.1659C42.2723 32.5434 42.3586 32.457 42.3586 32.3504V26.8464C42.3586 26.7398 42.2723 26.6534 42.1659 26.6534Z" fill="#3F3D56"/>
<path d="M79.0587 1.5426H46.2932C43.9337 1.5426 42.021 3.45786 42.021 5.82044V81.3316C42.021 83.6942 43.9337 85.6095 46.2932 85.6095H79.0587C81.4182 85.6095 83.331 83.6942 83.331 81.3316V5.82044C83.331 3.45786 81.4182 1.5426 79.0587 1.5426Z" fill="#3F3D56"/>
<path d="M64.1557 4.05249H58.9952C58.8273 4.05249 58.6912 4.1888 58.6912 4.35694V4.92148C58.6912 5.08962 58.8273 5.22593 58.9952 5.22593H64.1557C64.3236 5.22593 64.4597 5.08962 64.4597 4.92148V4.35694C64.4597 4.1888 64.3236 4.05249 64.1557 4.05249Z" fill="#E6E8EC"/>
<path d="M65.9966 5.30385C66.3635 5.30385 66.661 5.00601 66.661 4.63862C66.661 4.27122 66.3635 3.97339 65.9966 3.97339C65.6297 3.97339 65.3323 4.27122 65.3323 4.63862C65.3323 5.00601 65.6297 5.30385 65.9966 5.30385Z" fill="#E6E8EC"/>
<path d="M80.7802 7.01659V80.1318C80.7799 81.0029 80.4341 81.8383 79.8188 82.4541C79.2035 83.07 78.3691 83.416 77.4991 83.416H47.8531C46.9831 83.416 46.1487 83.07 45.5335 82.4541C44.9182 81.8383 44.5723 81.0029 44.572 80.1318V7.01659C44.572 6.58515 44.6569 6.15793 44.8218 5.75933C44.9867 5.36072 45.2284 4.99855 45.533 4.69347C45.8377 4.38839 46.1994 4.14639 46.5975 3.98129C46.9956 3.81618 47.4222 3.7312 47.8531 3.7312H52.2894V4.30174C52.2906 5.0185 52.5758 5.70549 53.0823 6.21197C53.5888 6.71846 54.2753 7.00309 54.9911 7.00341H70.0739C70.4287 7.00341 70.78 6.93343 71.1078 6.79748C71.4355 6.66153 71.7334 6.46226 71.9843 6.21105C72.2351 5.95985 72.4341 5.66162 72.5699 5.3334C72.7057 5.00519 72.7756 4.6534 72.7756 4.29814V3.7312H77.5051C78.3743 3.73279 79.2073 4.07963 79.8213 4.69559C80.4354 5.31154 80.7802 6.14629 80.7802 7.01659Z" fill="white"/>
<path opacity="0.2" d="M81.04 37.2084V62.0712H80.7802V62.0964H44.572V31.7212C44.8042 31.4559 45.0397 31.1806 45.2783 30.8953C50.3633 24.8148 57.2751 23.2147 62.6246 23.0469C66.29 22.927 69.9386 23.6857 73.422 25.1924C75.2618 25.9882 77.9025 26.8608 80.7802 26.9471V36.3466C80.9562 36.8488 81.04 37.2084 81.04 37.2084Z" fill="#007FFF"/>
<path opacity="0.2" d="M81.04 37.2084V62.0711H44.572V45.7844C45.8708 45.4572 47.6843 44.1987 50.0114 40.7215C52.7945 36.5611 56.576 35.4668 59.5028 35.3517C61.5078 35.2726 63.5045 35.788 65.4102 36.82C67.5541 37.9791 71.6863 39.3767 74.8261 35.3194C78.2976 30.833 80.1434 34.5331 80.7802 36.3466C80.9562 36.8488 81.04 37.2084 81.04 37.2084Z" fill="#007FFF"/>
<path d="M75.773 57.5177H49.6774C48.8841 57.5177 48.241 58.1617 48.241 58.956V65.1888C48.241 65.9832 48.8841 66.6271 49.6774 66.6271H75.773C76.5663 66.6271 77.2094 65.9832 77.2094 65.1888V58.956C77.2094 58.1617 76.5663 57.5177 75.773 57.5177Z" fill="#736E9E"/>
<path d="M16.0476 81.9513L18.3387 80.598C18.0289 80.0681 17.6328 79.5937 17.1668 79.1945L12.8443 80.5453L16.232 78.5508C15.3934 78.0908 14.4496 77.8574 13.4936 77.8736C12.5376 77.8897 11.6022 78.1549 10.7796 78.6429C9.95698 79.131 9.27547 79.8251 8.80213 80.657C8.32879 81.4888 8.07994 82.4298 8.08008 83.3872C8.08008 86.4329 10.5448 86.5383 13.5865 86.5383C16.6282 86.5383 19.0929 86.4329 19.0929 83.3872C19.094 82.6167 18.9328 81.8546 18.6201 81.1506L16.0476 81.9513Z" fill="#007FFF"/>
<path opacity="0.1" d="M16.6305 84.9131C16.3867 84.6682 16.1141 84.4537 15.8189 84.2742C15.4023 83.9973 14.9726 83.7157 14.4818 83.621C14.0509 83.5383 13.6068 83.6078 13.1651 83.5838C12.4029 83.5368 11.6856 83.2074 11.1528 82.6597C10.8404 82.3361 10.5938 81.9405 10.2179 81.69C9.81213 81.4239 9.2974 81.3664 8.81619 81.4323C8.67674 81.4534 8.53849 81.4818 8.40201 81.5174C8.18598 82.1175 8.07581 82.7506 8.07642 83.3885C8.07642 86.4341 10.5411 86.5396 13.5828 86.5396C15.0588 86.5396 16.3983 86.5144 17.387 86.1405L17.2218 85.8312C17.0643 85.5014 16.8656 85.1929 16.6305 84.9131Z" fill="black"/>
<path d="M27.3215 69.795C27.1466 69.9488 27.0118 70.143 26.9289 70.3608C26.7242 71.0008 27.2964 71.6289 27.3515 72.2989C27.3946 72.8311 27.1121 73.3273 26.9516 73.8379C26.7706 74.4722 26.7823 75.1461 26.9853 75.7737C27.1883 76.4013 27.5733 76.9542 28.0912 77.3619C28.2015 77.4556 28.3317 77.5228 28.4719 77.5584C28.5876 77.5724 28.7049 77.5626 28.8166 77.5296C28.9284 77.4966 29.0323 77.4412 29.1219 77.3666C29.3999 77.1642 29.6119 76.884 29.7312 76.5612C29.8305 76.244 29.8841 75.9143 29.8904 75.5819L29.9754 74.2994C30.064 72.9606 30.1442 71.5798 29.8186 70.2649C29.712 69.8334 29.5145 68.8421 29.0165 68.7822C28.5186 68.7223 27.6519 69.4714 27.3215 69.795Z" fill="#3F3D56"/>
<path d="M35.672 64.2863C35.074 66.3888 34.6406 68.5349 34.3756 70.7048C34.3373 71.0105 34.2978 71.3317 34.1135 71.5786C33.746 72.0736 33.0098 72.0425 32.3993 71.9622C32.2527 71.9545 32.1099 71.9135 31.9815 71.8423C31.7517 71.6865 31.7014 71.3749 31.6739 71.098C31.2557 67.0163 30.9764 62.9239 30.8359 58.8206C30.83 58.6636 35.9461 58.6492 36.3842 59.0603C36.8224 59.4715 36.4824 61.0093 36.3842 61.5331C36.2238 62.4656 35.9342 63.3741 35.672 64.2863Z" fill="#FBBEBE"/>
<path opacity="0.05" d="M35.672 64.2863C35.074 66.3888 34.6406 68.5349 34.3756 70.7048C34.3373 71.0105 34.2978 71.3317 34.1135 71.5786C33.746 72.0736 33.0098 72.0425 32.3993 71.9622C32.2527 71.9545 32.1099 71.9135 31.9815 71.8423C31.7517 71.6865 31.7014 71.3749 31.6739 71.098C31.2557 67.0163 30.9764 62.9239 30.8359 58.8206C30.83 58.6636 35.9461 58.6492 36.3842 59.0603C36.8224 59.4715 36.4824 61.0093 36.3842 61.5331C36.2238 62.4656 35.9342 63.3741 35.672 64.2863Z" fill="black"/>
<path d="M25.0183 58.2368L27.0904 62.7999C27.7799 64.3174 28.4742 65.8516 28.8034 67.4853C28.9354 68.1678 29.0198 68.8587 29.0559 69.5529C29.106 70.148 29.0875 70.7468 29.0009 71.3376C28.9255 71.7763 28.7866 72.203 28.7256 72.6441C28.4861 74.4025 29.4809 76.0566 30.162 77.6927C30.7505 79.0978 31.125 80.5835 31.2729 82.1C31.3351 82.746 31.3698 83.4316 31.7385 83.965C32.4125 83.7624 33.0708 83.5874 33.7735 83.6665C33.8992 82.6345 33.248 81.684 33.0086 80.67C32.5693 78.8122 33.5401 76.8596 33.2097 74.979C33.0301 73.9602 32.4735 73.0013 32.519 71.9681C32.604 70.0839 32.9571 68.1805 32.598 66.3346C32.1934 64.2479 31.0299 62.3505 30.7725 60.2409C30.575 58.6204 30.8922 56.8285 29.9908 55.4669C28.0217 55.3506 25.9855 56.5144 25.0183 58.2368Z" fill="#FBBEBE"/>
<path d="M31.8283 86.8932C31.6212 86.9004 31.3794 86.8932 31.2513 86.729C31.1888 86.6335 31.1528 86.523 31.1472 86.409C31.0491 85.6864 31.0011 84.9579 31.0035 84.2287C31.0035 83.9626 31.0155 83.6797 31.1639 83.4604C31.2728 83.3265 31.397 83.2058 31.5338 83.1008C31.851 82.8071 32.082 82.3816 32.4914 82.2462C32.6708 82.194 32.8609 82.1914 33.0416 82.2389C33.2223 82.2864 33.3867 82.3822 33.5173 82.5159C33.7756 82.7916 33.9355 83.1452 33.9722 83.5215C34.032 83.9674 33.9818 84.4528 34.2176 84.84C34.3109 84.9898 34.4414 85.1121 34.5468 85.2535C34.9059 85.7329 35.2279 86.6715 34.4869 86.8656C33.7016 87.0706 32.6435 86.8668 31.8283 86.8932Z" fill="#3F3D56"/>
<path d="M33.6251 31.2321C34.044 30.4219 33.7938 29.3791 33.1953 28.6911C32.5968 28.0031 31.7218 27.6195 30.8288 27.4121C29.6317 27.1317 28.3485 27.1341 27.2029 27.5752C26.2896 27.9264 25.5031 28.534 24.6604 29.0303C23.1711 29.9081 21.5043 30.4406 19.7824 30.5885C17.8672 30.7503 15.7281 30.4986 14.2473 31.7199C11.5348 33.9566 13.4237 38.9967 10.8956 41.4371C10.2133 42.0951 9.30231 42.4511 8.52064 42.9869C7.73897 43.5227 7.0399 44.3797 7.16559 45.3194C7.22544 45.7713 7.47203 46.1788 7.75693 46.5348C8.98031 48.0654 11.0344 48.8673 12.9772 48.6287C14.92 48.3902 16.6989 47.1413 17.6457 45.4225C17.8851 44.9922 18.079 44.5211 18.4561 44.2083C19.2114 43.5838 20.3199 43.8367 21.2991 43.8067C23.4765 43.7396 25.454 41.871 25.6444 39.6967C25.7258 38.7678 25.5678 37.6866 26.2345 37.0346C26.772 36.5072 27.6123 36.512 28.3473 36.3502C29.6976 36.0541 30.6803 35.0761 31.2968 33.8822C31.5793 33.3333 31.5506 32.7196 31.9695 32.2641C32.416 31.7631 33.2264 32.0016 33.6251 31.2321Z" fill="#3F3D56"/>
<g opacity="0.1">
<path d="M17.9976 30.9684C18.7918 30.9006 19.5768 30.7508 20.3402 30.5214C20.1248 30.5513 19.9093 30.5765 19.6926 30.5945C18.1915 30.7203 16.5492 30.5945 15.1965 31.1231C16.1183 31.0284 17.0843 31.0452 17.9976 30.9684Z" fill="black"/>
<path d="M16.6618 44.5883C16.2847 44.8999 16.086 45.3722 15.8514 45.8025C15.126 47.1119 13.9642 48.1245 12.5691 48.6636C12.6756 48.6564 12.7822 48.6468 12.8887 48.6336C14.8315 48.3939 16.6103 47.1473 17.5572 45.4285C17.7966 44.9982 17.9893 44.526 18.3676 44.2143L18.4322 44.164C17.775 44.1484 17.1454 44.188 16.6618 44.5883Z" fill="black"/>
<path d="M33.1056 28.6983C32.5071 28.0103 31.6261 27.6279 30.7391 27.4193C29.542 27.1389 28.2588 27.1425 27.112 27.5836L27.0354 27.6147C27.7101 27.5763 28.3867 27.6364 29.044 27.7933C29.9311 28.0019 30.8133 28.3842 31.4106 29.0734C32.0079 29.7626 32.2593 30.8042 31.8403 31.6145C31.4417 32.384 30.6313 32.1443 30.1752 32.6417C29.7563 33.096 29.785 33.7108 29.5025 34.2598C28.9722 35.287 28.169 36.1524 27.0964 36.5635C27.4711 36.4748 27.8733 36.4353 28.2468 36.3538C29.5971 36.0565 30.5798 35.0797 31.1963 33.8858C31.48 33.3369 31.4513 32.722 31.8691 32.2677C32.3263 31.7703 33.1367 32.0088 33.5342 31.2405C33.9531 30.4326 33.7029 29.3899 33.1056 28.6983Z" fill="black"/>
<path d="M26.5529 36.729C25.8179 36.8896 24.9776 36.886 24.4402 37.4122C23.7734 38.0655 23.9314 39.1466 23.85 40.0755C23.7076 41.6996 22.5668 43.1536 21.0908 43.814H21.1998C23.3772 43.7469 25.3535 41.877 25.5438 39.704C25.6264 38.7738 25.4684 37.6927 26.1352 37.0406C26.288 36.8947 26.4677 36.7799 26.6643 36.7026L26.5529 36.729Z" fill="black"/>
</g>
<path d="M33.6609 42.1407C33.5615 42.3169 33.3568 42.3984 33.1665 42.4691C31.1961 43.1955 29.1229 43.935 27.0448 43.6294C26.967 43.3021 26.8904 42.9737 26.8138 42.6465C26.7028 42.1719 26.5911 41.6972 26.4786 41.2226C26.4259 40.996 26.372 40.7671 26.329 40.537C26.2547 40.1736 26.2309 39.8017 26.2583 39.4318C26.271 39.2978 26.295 39.1651 26.3301 39.0351C26.3916 38.7987 26.4946 38.575 26.6342 38.3747C26.6581 38.3423 26.6833 38.3099 26.7096 38.2788C26.828 38.1358 26.9716 38.016 27.1334 37.9252C27.4865 37.731 27.9713 37.6483 28.1137 37.2719C28.1689 37.0752 28.1634 36.8663 28.0982 36.6726C27.9785 36.1932 27.7618 35.7425 27.6277 35.2679C27.4578 34.6686 27.7139 34.7057 28.2921 34.5607C29.3335 34.2982 30.4228 34.11 31.4918 34.321C31.4415 34.8496 31.3924 35.3913 31.5253 35.9067C31.6582 36.4221 32.0137 36.9112 32.5249 37.0538C32.6003 37.0754 32.6805 37.0886 32.7643 37.1065C32.8753 37.1244 32.9806 37.1679 33.0719 37.2336C33.1349 37.2857 33.1849 37.3517 33.2179 37.4266C33.27 37.5531 33.3042 37.6862 33.3197 37.8221C33.5072 39.0798 33.6425 40.3436 33.7255 41.6133V41.6613C33.7501 41.824 33.7277 41.9903 33.6609 42.1407Z" fill="#FBBEBE"/>
<path d="M23.5171 40.0755C23.0694 40.7575 22.9185 41.587 22.7821 42.3924L21.913 47.4386C21.7933 48.129 21.6868 48.8877 22.0399 49.493C22.1596 49.698 22.3272 49.8753 22.4146 50.0923C22.4806 50.3106 22.5239 50.5351 22.5439 50.7623C22.7474 51.919 23.8834 52.6993 25.0229 52.9798C25.4347 53.0816 25.9159 53.1212 26.2403 52.8467C26.5995 52.5482 26.5995 51.9801 26.3876 51.5702C26.1757 51.1603 25.7891 50.8702 25.4144 50.5957L24.173 49.68L24.8913 44.1664C24.9439 43.766 25.1307 43.247 25.5353 43.2914C25.904 43.3309 26.1877 43.8691 26.5157 43.6953C26.6184 43.6257 26.6908 43.5193 26.718 43.3981C26.8616 42.9462 26.8221 42.4596 26.7814 41.9861L26.633 40.2769C26.5839 39.7219 26.7263 39.306 26.7934 38.7846C26.8712 38.1769 26.4666 38.3615 25.9674 38.4922C25.0086 38.7463 24.0713 39.2293 23.5171 40.0755Z" fill="#FBBEBE"/>
<path d="M38.953 48.3627C38.8618 48.5163 38.7267 48.6391 38.5652 48.7151C37.596 49.2623 36.4562 49.4228 35.3738 49.1646C35.1244 49.0912 34.871 49.032 34.6149 48.9872C34.2055 48.9368 33.789 49.0183 33.376 48.9872C32.5381 48.9237 31.8019 48.3999 31.2213 47.7886C30.8718 47.429 30.5545 46.8405 30.8801 46.4545C30.9711 46.3614 31.0841 46.2928 31.2086 46.2551C31.3331 46.2173 31.4651 46.2117 31.5924 46.2388C31.8458 46.2953 32.0903 46.3865 32.319 46.5097C33.1201 46.8815 33.9772 47.1181 34.8555 47.2097C35.454 47.272 36.2154 47.1701 36.4225 46.6008C36.523 46.3239 36.4524 46.017 36.3818 45.7306C36.1886 44.9459 35.9955 44.1608 35.8024 43.3753C35.7891 43.3067 35.7649 43.2408 35.7306 43.1799C35.7207 43.1635 35.7091 43.1482 35.6959 43.1344C35.6195 43.0707 35.5272 43.0292 35.4289 43.0145C34.9824 42.9042 34.5359 42.7257 34.2163 42.396C34.0068 42.162 33.8399 41.8931 33.7231 41.6014C33.6896 41.5282 33.6585 41.4539 33.6262 41.3796C33.3808 40.8067 33.1222 40.2194 32.9223 39.6177C32.7827 39.211 32.6798 38.7926 32.6147 38.3675C32.562 37.9995 32.5333 37.8305 32.7344 37.6675C32.7883 37.6268 32.8455 37.5907 32.9055 37.5596C32.9977 37.5105 33.1019 37.4614 33.212 37.4146L33.3185 37.3703C33.646 37.2391 33.9824 37.1318 34.3252 37.049C35.156 36.8561 36.043 37.2588 36.6128 37.8953C37.1826 38.5317 37.4783 39.3648 37.6674 40.1978C37.8565 41.0308 37.9535 41.8842 38.1905 42.7041C38.2827 43.0253 38.3976 43.3417 38.4766 43.663C38.5614 44.0451 38.6217 44.4322 38.6573 44.822C38.7699 45.8153 38.882 46.8085 38.9937 47.8018C39.035 47.9887 39.0209 48.1837 38.953 48.3627Z" fill="#FBBEBE"/>
<path d="M26.6618 47.9311C26.9012 49.4606 26.2129 50.9648 25.5474 52.366C25.9244 52.6417 26.3853 52.7783 26.8354 52.897C29.8478 53.6899 32.9795 53.9259 36.0766 53.5934C36.1508 53.0756 36.2202 52.5266 36.0083 52.0496C35.8767 51.7535 35.6492 51.5126 35.5044 51.2225C35.265 50.7431 35.2889 50.1857 35.3152 49.6535L35.5295 45.1192C34.044 44.4336 32.3214 45.0761 30.6875 45.1684C29.8412 45.2163 28.9841 45.1132 28.1497 45.263C27.7164 45.341 26.3542 45.5555 26.1495 46.0026C25.9448 46.4497 26.5888 47.4445 26.6618 47.9311Z" fill="#FBBEBE"/>
<path opacity="0.05" d="M26.6618 47.9311C26.9012 49.4606 26.2129 50.9648 25.5474 52.366C25.9244 52.6417 26.3853 52.7783 26.8354 52.897C29.8478 53.6899 32.9795 53.9259 36.0766 53.5934C36.1508 53.0756 36.2202 52.5266 36.0083 52.0496C35.8767 51.7535 35.6492 51.5126 35.5044 51.2225C35.265 50.7431 35.2889 50.1857 35.3152 49.6535L35.5295 45.1192C34.044 44.4336 32.3214 45.0761 30.6875 45.1684C29.8412 45.2163 28.9841 45.1132 28.1497 45.263C27.7164 45.341 26.3542 45.5555 26.1495 46.0026C25.9448 46.4497 26.5888 47.4445 26.6618 47.9311Z" fill="black"/>
<path d="M30.5976 52.3205C28.9876 51.9849 27.4051 51.43 25.7615 51.3916C25.679 51.3832 25.5958 51.399 25.5221 51.4371C25.4419 51.5036 25.3884 51.5968 25.3713 51.6996C25.2013 52.287 25.0493 52.8787 24.9152 53.4748C24.4699 55.4561 24.2509 57.6448 25.23 59.4235C25.2205 58.8458 25.5832 58.3052 26.068 57.9852C26.5528 57.6651 27.1333 57.5357 27.7079 57.4829C28.2825 57.4302 28.8966 57.4518 29.4317 57.6879C29.8056 57.858 30.1282 58.1237 30.3671 58.4582C30.606 58.7928 30.7528 59.1844 30.7927 59.5937L36.4487 59.7771C36.4818 59.7868 36.5168 59.788 36.5506 59.7807C36.5843 59.7734 36.6156 59.7578 36.6418 59.7353C36.6679 59.7128 36.6881 59.6841 36.7004 59.6519C36.7126 59.6196 36.7167 59.5848 36.7121 59.5505C36.9206 57.7338 36.913 55.8986 36.6893 54.0837C36.6271 53.5767 36.6187 52.8731 36.0489 52.6825C35.369 52.4548 34.2941 52.7209 33.5675 52.6897C32.5691 52.6477 31.5759 52.5242 30.5976 52.3205Z" fill="#3F3D56"/>
<path d="M35.7319 43.4412L35.7139 45.9583L29.9921 46.1488C28.9423 46.1848 27.8841 46.2208 26.8606 46.4545C26.5661 46.5216 26.2752 46.6055 25.9856 46.6882C25.6839 45.5819 25.387 44.4228 25.466 43.295C25.4879 42.9907 25.5408 42.6895 25.6241 42.396C25.806 41.7631 26.1472 41.1662 26.3291 40.5405C26.4024 40.2969 26.4427 40.0446 26.4488 39.7902C26.4352 39.5362 26.3951 39.2843 26.3291 39.0387C26.2766 38.8372 26.2517 38.6296 26.2549 38.4214L26.7086 38.2812C26.7217 38.3351 26.7325 38.3878 26.7421 38.443C26.7613 38.5568 26.7768 38.6731 26.7876 38.7894C26.8132 39.0775 26.8212 39.3669 26.8115 39.656C26.796 40.2337 26.7182 40.8774 27.0785 41.334C27.5465 41.9202 28.4467 41.8291 29.1817 41.6828L31.1065 41.2981C31.7146 41.1782 32.3933 41.008 32.7106 40.4746C32.8459 40.2156 32.9173 39.9279 32.9188 39.6356V39.5781C32.9475 38.9414 32.8842 38.304 32.7309 37.6855C32.6842 37.4913 32.6268 37.2995 32.5621 37.1113H32.7549C32.8659 37.1292 32.9712 37.1727 33.0625 37.2384C33.1255 37.2905 33.1755 37.3565 33.2085 37.4314L33.3151 37.387C33.7398 39.1254 34.4397 40.7845 35.3884 42.3013C35.5103 42.4749 35.6071 42.665 35.6756 42.8659C35.7041 42.9748 35.7202 43.0865 35.7235 43.1991C35.7331 43.2698 35.7319 43.3549 35.7319 43.4412Z" fill="#007FFF"/>
<path d="M29.6868 35.8229C31.604 35.8229 33.1582 34.2667 33.1582 32.3469C33.1582 30.4272 31.604 28.871 29.6868 28.871C27.7695 28.871 26.2153 30.4272 26.2153 32.3469C26.2153 34.2667 27.7695 35.8229 29.6868 35.8229Z" fill="#FBBEBE"/>
<path d="M23.5171 40.0756C23.0694 40.7576 22.9185 41.587 22.7821 42.3925L21.913 47.4386C21.7933 48.129 21.6868 48.8878 22.0399 49.4931C22.1596 49.698 22.3272 49.8754 22.4146 50.0924C22.4806 50.3107 22.5239 50.5352 22.5439 50.7624C22.7474 51.919 23.8834 52.6993 25.0229 52.9798C25.4347 53.0817 25.9159 53.1213 26.2403 52.8468C26.5995 52.5483 26.5995 51.9802 26.3876 51.5703C26.1757 51.1603 25.7891 50.8703 25.4144 50.5958L24.173 49.68L24.8913 44.1664C24.9392 43.7697 24.0713 39.2294 23.5171 40.0756Z" fill="#FBBEBE"/>
<path d="M37.6686 40.205C37.8577 41.038 37.9547 41.8914 38.1917 42.7113C38.2839 43.0337 38.3988 43.3489 38.4778 43.6702C38.5626 44.0519 38.6229 44.4386 38.6585 44.828L38.9949 47.8078C39.0337 47.9918 39.0191 48.1831 38.953 48.3591C38.8615 48.5125 38.7265 48.6351 38.5652 48.7115C37.5955 49.2573 36.4562 49.4178 35.3738 49.161C35.1247 49.0865 34.8713 49.0272 34.6149 48.9836C34.2055 48.9321 33.789 49.0148 33.376 48.9836C32.5381 48.9201 31.8019 48.3975 31.2213 47.791C30.8718 47.4314 30.5545 46.8417 30.8801 46.4557C30.9711 46.3626 31.0841 46.294 31.2086 46.2563C31.3331 46.2185 31.4651 46.2129 31.5924 46.24C31.8459 46.2969 32.0904 46.3885 32.319 46.5121C33.1204 46.883 33.9774 47.1191 34.8555 47.2109C35.454 47.2744 36.2154 47.1725 36.4225 46.602C36.523 46.3251 36.4524 46.0182 36.3818 45.7318L35.8024 43.3765C35.7784 43.295 37.4794 39.3731 37.6686 40.205Z" fill="#FBBEBE"/>
<path d="M27.538 33.4172C27.3836 32.8623 27.1669 32.1683 27.6014 31.7919C27.7576 31.6712 27.9458 31.5991 28.1425 31.5845C29.1181 31.4647 30.1272 32.04 31.0609 31.7332C31.3587 31.6357 31.622 31.4541 31.819 31.2101C32.016 30.9661 32.1382 30.6703 32.171 30.3583C32.2038 30.0463 32.1457 29.7315 32.0037 29.4518C31.8618 29.1721 31.642 28.9396 31.3709 28.7822C30.9627 28.5425 30.4755 28.4957 30.0051 28.4538C28.7662 28.3399 27.4746 28.2344 26.3158 28.6935C25.1571 29.1526 24.1803 30.3344 24.4197 31.5582C24.531 32.1419 24.8913 32.6441 25.2576 33.1092C25.5389 33.4628 26.6678 35.1468 27.1214 35.1228C27.7607 35.0869 27.6386 33.778 27.538 33.4172Z" fill="#3F3D56"/>
<path opacity="0.1" d="M31.371 28.7821C31.3018 28.7421 31.2298 28.7073 31.1555 28.6779C31.3657 28.8688 31.5221 29.1117 31.6091 29.3822C31.6961 29.6528 31.7107 29.9414 31.6513 30.2193C31.5919 30.4972 31.4607 30.7547 31.2707 30.9658C31.0808 31.177 30.8388 31.3345 30.5689 31.4227C29.6352 31.7295 28.6261 31.1542 27.6505 31.274C27.4538 31.2886 27.2657 31.3607 27.1095 31.4814C26.675 31.8578 26.8916 32.5518 27.046 33.1067C27.1466 33.4663 27.2687 34.7764 26.6319 34.8123H26.6211C26.8186 35.0053 26.997 35.1312 27.1239 35.124C27.7607 35.088 27.6386 33.7791 27.538 33.4184C27.3836 32.8634 27.1669 32.1694 27.6015 31.793C27.7576 31.6723 27.9458 31.6002 28.1425 31.5857C29.1181 31.4658 30.1272 32.0412 31.0609 31.7343C31.3587 31.6369 31.622 31.4552 31.819 31.2112C32.016 30.9673 32.1383 30.6714 32.171 30.3594C32.2038 30.0474 32.1457 29.7326 32.0037 29.4529C31.8618 29.1733 31.642 28.9407 31.371 28.7833V28.7821Z" fill="black"/>
<path d="M82.3567 72.0209H43.333V84.1268H82.3567V72.0209Z" fill="#3F3D56"/>
<path d="M61.1689 75.9331V80.2121L64.5207 78.0726L61.1689 75.9331Z" fill="white"/>
<path d="M31.243 4.09088L29.3852 5.27031L30.5128 3.21709C30.1932 2.96167 29.7976 2.82035 29.3888 2.81556H29.3588C29.2298 2.81745 29.1008 2.80782 28.9734 2.78679L28.3437 3.18593L28.6143 2.6945C28.1676 2.5389 27.7819 2.24506 27.513 1.85547L26.3854 2.57464L27.0976 1.27894C26.4381 0.486657 25.5498 0.0012207 24.5731 0.0012207C23.4011 0.0012207 22.3573 0.698811 21.6834 1.78595C21.4841 2.11238 21.2017 2.37987 20.8651 2.56101C20.5286 2.74214 20.15 2.83041 19.7681 2.81675H19.7047C18.4107 2.81675 17.3621 4.28505 17.3621 6.09735C17.3621 7.90965 18.4107 9.37794 19.7047 9.37794C19.9893 9.37661 20.2694 9.30629 20.5211 9.17298C20.9613 8.95845 21.4428 8.84239 21.9323 8.83287C22.4218 8.82335 22.9075 8.92059 23.3557 9.11785C23.7349 9.28771 24.1456 9.37552 24.5611 9.37552C24.9765 9.37552 25.3873 9.28771 25.7665 9.11785C26.2115 8.92466 26.6929 8.8296 27.1778 8.83911C27.6628 8.84862 28.14 8.96249 28.5772 9.17298C28.8262 9.30348 29.1029 9.37213 29.384 9.37315C30.678 9.37315 31.7266 7.90365 31.7266 6.09255C31.7355 5.39529 31.5692 4.70698 31.243 4.09088Z" fill="#F2F2F2"/>
<path opacity="0.03" d="M27.7404 8.89124C27.0656 8.7631 26.368 8.83904 25.7365 9.10938C25.3572 9.27888 24.9465 9.36648 24.5311 9.36648C24.1157 9.36648 23.705 9.27888 23.3257 9.10938C22.8773 8.91255 22.3916 8.81565 21.9022 8.82537C21.4127 8.8351 20.9312 8.95123 20.4911 9.16572C20.2393 9.29852 19.9592 9.36842 19.6747 9.36948C18.5255 9.36948 17.5691 8.21043 17.3704 6.681C17.5995 6.51286 17.7945 6.30255 17.9449 6.06132C18.6189 4.97298 19.6627 4.27539 20.8346 4.27539C22.0065 4.27539 23.0372 4.96459 23.7075 6.04094C23.9092 6.36467 24.1909 6.63083 24.5254 6.81371C24.8598 6.99659 25.2358 7.09 25.6168 7.08493H25.6467C26.5625 7.08493 27.3549 7.81968 27.7404 8.89124Z" fill="black"/>
<path d="M94.8058 30.8247L93.8793 31.4132L94.4419 30.3884C94.2826 30.2613 94.0855 30.1908 93.8817 30.1882H93.8662C93.8021 30.1893 93.738 30.1849 93.6746 30.175L93.355 30.3764L93.4903 30.1307C93.2677 30.0534 93.0753 29.9073 92.9408 29.7136L92.3782 30.0731L92.7373 29.4271C92.5878 29.2339 92.3973 29.0764 92.1795 28.9662C91.9617 28.8559 91.7221 28.7955 91.4781 28.7894C90.8939 28.7894 90.3732 29.137 90.0416 29.68C89.9418 29.843 89.8005 29.9765 89.6323 30.0668C89.464 30.1572 89.2748 30.2011 89.084 30.1942H89.0528C88.4076 30.1942 87.8845 30.9277 87.8845 31.8303C87.8845 32.7329 88.4076 33.4676 89.0528 33.4676C89.1947 33.467 89.3344 33.432 89.4598 33.3657C89.6793 33.2587 89.9194 33.2007 90.1635 33.1957C90.4076 33.1907 90.6499 33.2389 90.8735 33.337C91.0617 33.4222 91.2656 33.4667 91.4721 33.4676C91.6782 33.4669 91.8819 33.4236 92.0706 33.3405C92.2925 33.2442 92.5325 33.1967 92.7743 33.2012C93.0162 33.2058 93.2542 33.2623 93.4723 33.3669C93.5963 33.4324 93.7343 33.467 93.8745 33.4676C94.5197 33.4676 95.0428 32.7341 95.0428 31.8303C95.0498 31.4804 94.9683 31.1345 94.8058 30.8247Z" fill="#F2F2F2"/>
<path opacity="0.03" d="M93.0546 33.2194C92.7176 33.1547 92.369 33.1927 92.0539 33.3285C91.8655 33.4126 91.6616 33.456 91.4554 33.456C91.2491 33.456 91.0452 33.4126 90.8568 33.3285C90.6332 33.2306 90.391 33.1824 90.147 33.1871C89.9029 33.1919 89.6628 33.2495 89.4431 33.3561C89.3178 33.4229 89.1781 33.4583 89.0361 33.4591C88.4627 33.4591 87.9863 32.8802 87.887 32.1179C88.0013 32.0342 88.0984 31.9292 88.1731 31.8087C88.5094 31.2657 89.0301 30.9181 89.6095 30.9181C90.1889 30.9181 90.7084 31.2621 91.046 31.7979C91.1466 31.9608 91.2877 32.0947 91.4556 32.1866C91.6235 32.2784 91.8123 32.3249 92.0036 32.3217H92.018C92.4669 32.3181 92.8631 32.6848 93.0546 33.2194Z" fill="black"/>
<path d="M96.8565 15.5412L98.3444 16.4869L97.4395 14.8412C97.6956 14.637 98.0123 14.524 98.3396 14.5199H98.3636C98.467 14.5215 98.5703 14.5139 98.6724 14.4972L99.1776 14.8172L98.9609 14.4241C99.3181 14.2986 99.6267 14.0638 99.8431 13.7528L100.747 14.3258L100.176 13.2878C100.704 12.6525 101.416 12.2642 102.199 12.2642C103.139 12.2642 103.974 12.8227 104.514 13.6941C104.674 13.9549 104.899 14.1686 105.168 14.3137C105.437 14.4587 105.74 14.5299 106.045 14.5199H106.095C107.132 14.5199 107.972 15.697 107.972 17.1485C107.972 18.6 107.134 19.777 106.095 19.777C105.867 19.7759 105.643 19.7195 105.442 19.6128C105.089 19.4405 104.702 19.3472 104.309 19.3395C103.917 19.3319 103.527 19.41 103.167 19.5685C102.864 19.7044 102.535 19.7746 102.202 19.7746C101.869 19.7746 101.54 19.7044 101.236 19.5685C100.88 19.4135 100.494 19.3371 100.106 19.3445C99.7175 19.352 99.3351 19.4431 98.9848 19.6116C98.7848 19.7159 98.5628 19.771 98.3372 19.7723C97.3006 19.7723 96.4603 18.5952 96.4603 17.1437C96.4565 16.5848 96.5927 16.0338 96.8565 15.5412Z" fill="#F2F2F2"/>
<path opacity="0.03" d="M99.6611 19.3875C100.203 19.2841 100.763 19.3451 101.27 19.5625C101.574 19.6984 101.903 19.7686 102.235 19.7686C102.568 19.7686 102.897 19.6984 103.201 19.5625C103.561 19.4045 103.95 19.3267 104.343 19.3346C104.736 19.3425 105.122 19.4358 105.475 19.608C105.677 19.7143 105.901 19.7702 106.129 19.771C107.049 19.771 107.815 18.8421 107.976 17.6135C107.791 17.4795 107.635 17.3105 107.515 17.1161C106.975 16.2459 106.138 15.6862 105.2 15.6862C104.261 15.6862 103.434 16.2387 102.894 17.1005C102.733 17.3604 102.507 17.5742 102.239 17.7211C101.971 17.8681 101.67 17.9434 101.365 17.9395H101.341C100.606 17.9407 99.97 18.5293 99.6611 19.3875Z" fill="black"/>
</g>
<defs>
<clipPath id="clip0_3195_697">
<rect width="125.69" height="90" fill="white"/>
</clipPath>
</defs>
</svg>
