<svg width="50" height="50" viewBox="0 0 50 50" fill="none" xmlns="http://www.w3.org/2000/svg">
<path d="M36.9646 23.1729C36.7479 23.0699 36.5291 22.9713 36.3084 22.8771C35.9229 15.7646 32.0375 11.6937 25.5125 11.6521H25.425C21.5209 11.6521 18.2771 13.3187 16.2792 16.35L19.8667 18.8104C21.3584 16.5458 23.7 16.0625 25.4271 16.0625H25.4854C27.6334 16.0771 29.2563 16.7021 30.3042 17.9208C31.0688 18.8062 31.5792 20.0333 31.8313 21.5792C29.7935 21.2483 27.7248 21.1483 25.6646 21.2812C19.4625 21.6396 15.4729 25.2562 15.7417 30.2833C15.8771 32.8333 17.1479 35.0271 19.3188 36.4604C21.1521 37.6729 23.5167 38.2646 25.975 38.1312C29.2188 37.9521 31.7625 36.7146 33.5375 34.4521C34.8875 32.7333 35.7396 30.5062 36.1167 27.7C37.6625 28.6333 38.8084 29.8604 39.4417 31.3354C40.5188 33.8458 40.5813 37.9687 37.2167 41.3292C34.2688 44.275 30.725 45.5479 25.3709 45.5875C19.4313 45.5458 14.9375 43.6396 12.0167 39.9271C9.28128 36.4479 7.86878 31.4271 7.8167 25C7.86878 18.5729 9.28128 13.55 12.0167 10.0729C14.9375 6.36042 19.4292 4.45625 25.3709 4.4125C31.3521 4.45417 35.9229 6.37083 38.9563 10.1C40.4438 11.9312 41.5646 14.2312 42.3042 16.9125L46.5084 15.7917C45.6125 12.4896 44.2021 9.64583 42.2854 7.28542C38.3959 2.5 32.7084 0.05 25.3855 0H25.3563C18.0417 0.05 12.4229 2.51042 8.64587 7.3125C5.28337 11.5833 3.55003 17.5312 3.4917 24.9833V25.0167C3.55003 32.4708 5.28337 38.4146 8.64378 42.6875C12.4209 47.4896 18.0438 49.95 25.3563 50H25.3855C31.8855 49.9542 36.4667 48.2521 40.2396 44.4812C45.1792 39.5479 45.0313 33.3646 43.4021 29.5687C42.2354 26.8458 40.0084 24.6354 36.9646 23.1729ZM25.7417 33.725C23.0229 33.8792 20.2 32.6583 20.0584 30.0458C19.9542 28.1083 21.4375 25.9437 25.9084 25.6875C26.4209 25.6562 26.9229 25.6437 27.4167 25.6437C29.0417 25.6437 30.5584 25.8 31.9396 26.1021C31.425 32.5354 28.4042 33.5792 25.7417 33.725Z" fill="black"/>
</svg>
